<svg xmlns="http://www.w3.org/2000/svg" width="71.736" height="57.422" viewBox="0 0 71.736 57.422"><g transform="translate(-273.169 -257.644)"><path d="M301.982,278.926a38.478,38.478,0,0,1,2-7.354c1.148-2.429,3.6-3.3,3.824,1.209S301.982,278.926,301.982,278.926Z" fill="#722b0c"/><path d="M287.362,288.333a5.341,5.341,0,0,1-2.4,1.051c-1.347.182-2.76.67-3.259,1.625.883-.078,1.823.016,2.946-.078s1.457-.61,2.184-1.076A1.578,1.578,0,0,0,287.362,288.333Z" fill="#722b0c"/><path d="M290.373,283.084c-1.619.995-4.931,4.835-4.931,4.835a4.646,4.646,0,0,0,1.918,1.966c.585,1.01,1.264-.933,1.264-.933s3.126-2.82,3.771-4.058A1.4,1.4,0,0,0,290.373,283.084Z" fill="#722b0c"/><path d="M297.942,279.227s-1.258-4.013-3.053-3.442-2.89,4.862-3.337,7,1.217,1.276,2.218,1.4S297.942,279.227,297.942,279.227Z" fill="#722b0c"/><path d="M288.563,293.391a44.27,44.27,0,0,0-5.976,2.911,3.028,3.028,0,0,0-1.454,2.545,33.3,33.3,0,0,0,3.517-1.148c1.6-.648,3.93-2.07,4.26-2.669S288.563,293.391,288.563,293.391Z" fill="#722b0c"/><path d="M322.815,272.486c-.183-.025-.353-.063-.54-.085a26.213,26.213,0,0,0-5.116-.1,9.988,9.988,0,0,1,5.322,5.73c1.384,3.985-.131,9.083-.97,11.371a16.406,16.406,0,0,0,2.516.388,24.045,24.045,0,0,0,3.263-7.95C328.464,276.538,325.05,273.723,322.815,272.486Z" fill="#863f1b"/><path d="M318.918,280.509a8.01,8.01,0,0,0-6.267-7.437,21.811,21.811,0,0,0-6.344,2.679l-3.9,17.6a102.328,102.328,0,0,0,15.246-2.778A23.413,23.413,0,0,0,318.918,280.509Z" fill="#863f1b"/><path d="M334.247,278.48a14.716,14.716,0,0,0-5.551-4.323,9.757,9.757,0,0,1,2.727,6.373c.12,3.4-1.772,6.927-3.284,9.186a21.776,21.776,0,0,0,3.943-.809,22.947,22.947,0,0,0,1.962-4.309A10.548,10.548,0,0,0,334.247,278.48Z" fill="#863f1b"/><path d="M322.481,278.036a9.988,9.988,0,0,0-5.322-5.73,25.877,25.877,0,0,0-4.508.766,8.01,8.01,0,0,1,6.267,7.437,23.413,23.413,0,0,1-1.261,10.062,20.829,20.829,0,0,0,3.373-1.278c.156.043.321.076.481.114C322.35,287.119,323.865,282.021,322.481,278.036Z" fill="#e77a03"/><path d="M328.7,274.157a20.733,20.733,0,0,0-5.881-1.671c2.235,1.237,5.649,4.052,4.475,9.359a24.045,24.045,0,0,1-3.263,7.95,22,22,0,0,0,4.112-.079c1.512-2.259,3.4-5.787,3.284-9.186A9.757,9.757,0,0,0,328.7,274.157Z" fill="#e77a03"/><path d="M334.247,278.48a10.548,10.548,0,0,1-.2,6.118,22.947,22.947,0,0,1-1.962,4.309,13.533,13.533,0,0,0,4.528-2.257A10.984,10.984,0,0,0,334.247,278.48Z" fill="#e77a03"/><path d="M294.889,281.177s1.277-9.553,8.982-15.163,14.981-9.319,21.572-8.156c5.428.958-1.363,10.606-4.854,13.984s-10.775,7.683-10.775,7.683Z" fill="#e77a03" opacity="0.5"/><path d="M309.814,288.875s10.917-1.322,19.987-6.29c7.073-3.876,11.341-6.513,14.3-10.475,1.987-2.662.65-5.766-7.942-5.171s-12.5,0-23.348,4.9a83.883,83.883,0,0,0-10.4,5.574Z" fill="#e77a03" opacity="0.5"/><path d="M328.5,269.411a27.654,27.654,0,0,1-8.147,9.212c-5.177,3.924-7.867,4.915-7.867,4.915l-.28-1.141a81.7,81.7,0,0,0,7.437-4.518C323.749,275.089,328.5,269.411,328.5,269.411Z" fill="#722b0c"/><path d="M311.7,286.9a147.824,147.824,0,0,0,14.139-5.423c4.7-2.317,11.731-5.106,14.811-7.387s3.3-4.465,3.3-4.465a22.34,22.34,0,0,1-5.017,4.465,97.459,97.459,0,0,1-15.7,7.532,105.733,105.733,0,0,1-10.525,3.076Z" fill="#722b0c"/><path d="M300.991,277.87a20.379,20.379,0,0,1,6.379-8.459c4.565-3.411,11.548-5.492,11.548-5.492s-9.4,4.15-11.69,6.149a20.125,20.125,0,0,0-5.163,7.45Z" fill="#722b0c"/><path d="M296.694,279.924a22.407,22.407,0,0,1,4.23-9.156,46.73,46.73,0,0,1,17.994-11.549s-6.11,2.4-14.637,9a26.7,26.7,0,0,0-5.678,7.563,13.874,13.874,0,0,0-.661,3.448Z" fill="#722b0c"/><path d="M316.115,280.659a3.208,3.208,0,0,0-2.459-.735,22.865,22.865,0,0,1,.957-2.406c-1.107-.065-1.486-.065-2.685-.082a2.939,2.939,0,0,0,.665-2.39c-1.412,1.429-3.534.842-4.941.733a4.866,4.866,0,0,0-.287-2.155A16.439,16.439,0,0,1,305.7,275.8a9.282,9.282,0,0,1-.34-1.705,6.067,6.067,0,0,1-3.377,2.328,5.583,5.583,0,0,0-1.463-2.328,4.435,4.435,0,0,1-2.066,3.6c-6.482,3.8-7.768,11.055-7.768,11.055l4.972,6.754s9.363.961,14.851-3.871a9.6,9.6,0,0,0,2.927-4.295c.618-2.044,3.075-3.1,3.075-3.1a2.974,2.974,0,0,0-2.291-.507A4.237,4.237,0,0,1,316.115,280.659Z" fill="#e77a03"/><path d="M340.2,268.216a39.567,39.567,0,0,1-2.685,3.693c-1.41,1.678-4.5,5.605-4.5,5.605s1.264.071,1.276-.368,2.753-3.693,3.894-5.3A23.3,23.3,0,0,0,340.2,268.216Z" fill="#722b0c"/><path d="M322.275,276.475c.2-.135,5.443-1.159,8.259-2.82a37.7,37.7,0,0,0,6.076-4.835,69.376,69.376,0,0,1-7.654,4.767,16.62,16.62,0,0,1-5.338,1.545Z" fill="#722b0c"/><path d="M310.508,263.449a52.378,52.378,0,0,0,5.993-1.142c1.611-.537,5.774-2.618,5.774-2.618s-3.138,2.618-5.563,3.289a62.565,62.565,0,0,1-7.487,1.176Z" fill="#722b0c"/><path d="M309.955,268.216s4.53.356,6.561-.3a28.431,28.431,0,0,0,5.759-3.125,47.686,47.686,0,0,1-6.169,2.551,20.468,20.468,0,0,1-5.244.463Z" fill="#722b0c"/><path d="M305.564,293.47c-1.044-.641-4.063,1.29-4.685,5.21-.384,2.421,1.174,2.41,2.519-.139S307.087,294.4,305.564,293.47Z" fill="#722b0c"/><path d="M294.309,286.123a7.343,7.343,0,0,1,2.385-4.566c2.2-1.946,3.175-2.547,3.474-3.294a5.579,5.579,0,0,0,.351-1.5,6.652,6.652,0,0,1,.472,2.1,1.866,1.866,0,0,1-.472,1.061,17.2,17.2,0,0,1,2.545-1.5,16.579,16.579,0,0,1,2.39-.556l-1.544,1.592a13.827,13.827,0,0,1,2.021-.449,9.626,9.626,0,0,1,3.294.3l-3.622,2.171s1.45-.058,2.2-.038a12.124,12.124,0,0,0,2.728-.268,13.462,13.462,0,0,1-2.17,1.915,8.334,8.334,0,0,1-2.1.628,10.188,10.188,0,0,0,1.834.507,5.344,5.344,0,0,0,2.582-.507,10.611,10.611,0,0,1-3.319,3.863l2.005-.255a6.363,6.363,0,0,1-4.8,4.141,28.534,28.534,0,0,1-6.045.492Z" fill="#ffa648" opacity="0.8"/><path d="M294.772,284.32c3.167.925,4.861.532,5.747,4.021s-.132,9.2-3.825,11.451-6.729,1.941-8.2,0C285.3,295.572,289.476,282.773,294.772,284.32Z" fill="#863f1b"/><path d="M298.065,288.341c-1.712.194-1.265,3.025-1.752,5.267a28.145,28.145,0,0,1-1.684,4.841,5.963,5.963,0,0,0,4.3-3.879C300.319,291.1,299.63,288.164,298.065,288.341Z" fill="#722b0c"/><path d="M290.105,286.679s-2.266-.563-2.89,3.206a16.628,16.628,0,0,0,.171,5.972S288.958,287.995,290.105,286.679Z" fill="#722b0c"/><path d="M288.211,299.361s-.018,2.488.655,3.42a2.093,2.093,0,0,0,.952.792c.067-.366.076-.766.152-1.077a1.816,1.816,0,0,1,.625-.951,1.6,1.6,0,0,1,.037,1.214c-.059.2-.263.813-.3.971.914,0,2.37-.326,3.441-2.631A6.142,6.142,0,0,1,288.211,299.361Z" fill="#722b0c"/><path d="M301.958,299.385c-1.9-.254-2.159,1.55-2.4,4.323a19.55,19.55,0,0,0,.22,4.248c.185,1.257.4,2.168.4,2.168a5.142,5.142,0,0,0,2.22-4A29.207,29.207,0,0,0,301.958,299.385Z" fill="#722b0c"/><path d="M281.9,297.425s-1.187,1.338-1.854,2.271-1.926,2.131-2.029,3.13a4.593,4.593,0,0,0,0,1.4,9.723,9.723,0,0,1,2.029-2.2c1-.666,1.445-1.265,1.343-2.265A5.618,5.618,0,0,1,281.9,297.425Z" fill="#722b0c"/><path d="M300.929,307.025a11.464,11.464,0,0,1-1.042,3.511c-.667.933-1.927,2.132-2.029,3.131a4.549,4.549,0,0,0,0,1.4,9.7,9.7,0,0,1,2.029-2.2c1-.666,1.444-1.265,1.342-2.265S300.929,307.025,300.929,307.025Z" fill="#722b0c"/><path d="M317.535,287.126c-.9-.954-1.917.841-.844,3.9.869,2.481.9,3.671,1.746,4.647a1.107,1.107,0,0,0,1.713.076C321.566,294,319.7,289.42,317.535,287.126Z" fill="#722b0c"/><path d="M320.265,305.6c.75-.263,2.092-.737,2.241-.759,0-.362.017-.752.05-1.179.294-3.806-2.078-8.351-3.394-8.891,0,0-1.517,4.776-.773,7.44A7.643,7.643,0,0,0,320.265,305.6Z" fill="#722b0c"/><path d="M332.352,299.1c.828-.29,4.02-1.193,4.02-2.29,0-.4-3.915-8.463-5.365-9.059,0,0-1.673,5.267-.853,8.2A6.1,6.1,0,0,0,332.352,299.1Z" fill="#722b0c"/><path d="M309.225,292.413s.9,1.51,3.744.978,3.537-1.4,4.144-2.66c.57-1.183.542-2.995-1.2-1.856S309.225,292.413,309.225,292.413Z" fill="#722b0c"/><path d="M320.978,304.021s-.48,2.133.362,3.088,1.79,1.235,2.27,1.908a3.464,3.464,0,0,1,.562,1.011,1.639,1.639,0,0,0,0-1.909c-.7-1.01-1.342-1.034-1.821-1.622A11.96,11.96,0,0,1,320.978,304.021Z" fill="#722b0c"/><path d="M334.677,297.093s.094,2.365,1.241,3.128,2.217.793,2.907,1.363a3.758,3.758,0,0,1,.87.9,1.776,1.776,0,0,0-.533-2c-1.013-.862-1.693-.707-2.358-1.188A12.988,12.988,0,0,1,334.677,297.093Z" fill="#722b0c"/><path d="M319.558,289.934a27.153,27.153,0,0,0,1.941-5.2c.982-4.737,2.032-8.323,2.859-7.872s-.044,6.367-.385,7.872S323.006,289.815,319.558,289.934Z" fill="#722b0c"/><path d="M324.358,276.858s2.885.383,4.732,4.485,2.656,6.576,3.308,8a2.1,2.1,0,0,1-2.632,2.728c-1.952-.453-2.289-2.919-2.851-5.11S324.271,278.036,324.358,276.858Z" fill="#722b0c"/><path d="M289,291.976s-3.447-2.9-4.619-3.966-1.223-.314-4.441.5c-1.615.41-6.772,1.42-6.772,1.42s.452,1.47,3.21,1.075a39.848,39.848,0,0,0,6.808-1.965,62.389,62.389,0,0,0,5.376,3.734C289.315,292.7,289,291.976,289,291.976Z" fill="#e77a03"/><path d="M292.983,292.579s-.562.477-.169.926c.323.368.762,0,.762,0l3.579-2.252a25.217,25.217,0,0,1,2.525,3.041,7.828,7.828,0,0,0,2.816,2.663c.4.09.965-.547-1.374-2.975-2.217-2.3-3.031-4.042-3.888-3.806A26,26,0,0,0,292.983,292.579Z" fill="#e77a03"/></g></svg>