<svg xmlns="http://www.w3.org/2000/svg" width="926.736" height="330.566" viewBox="0 0 926.736 330.566"><g transform="translate(0 -749)"><path d="M926.736,1554.016H0V1255.449c69.394-22.19,265.042-72.668,350.994,30.813,105.437,126.941,83.24,161.624,293.42,171.335C801.439,1464.852,894.973,1498.821,926.736,1554.016Z" transform="translate(0 -474.45)" fill="#edbe0b"/><g transform="translate(225.328 749.568)" opacity="0.5"><g transform="translate(269.971 94.618)"><rect width="4.668" height="4.668" transform="matrix(0.707, -0.707, 0.707, 0.707, 0, 80.909)" fill="#fff"/><rect width="4.668" height="4.668" transform="matrix(0.707, -0.707, 0.707, 0.707, 0, 61.507)" fill="#fff"/><rect width="4.668" height="4.668" transform="translate(0 42.105) rotate(-45)" fill="#fff"/><rect width="4.668" height="4.668" transform="translate(0 22.703) rotate(-45)" fill="#fff"/><rect width="4.668" height="4.668" transform="translate(0 3.301) rotate(-45)" fill="#fff"/><rect width="4.668" height="4.668" transform="translate(0 100.311) rotate(-45)" fill="#fff"/></g><g transform="translate(242.396 94.618)"><rect width="4.668" height="4.668" transform="matrix(0.707, -0.707, 0.707, 0.707, 0, 80.909)" fill="#fff"/><rect width="4.668" height="4.668" transform="matrix(0.707, -0.707, 0.707, 0.707, 0, 61.507)" fill="#fff"/><rect width="4.668" height="4.668" transform="translate(0 42.105) rotate(-45)" fill="#fff"/><rect width="4.668" height="4.668" transform="translate(0 22.703) rotate(-45)" fill="#fff"/><rect width="4.668" height="4.668" transform="translate(0 3.301) rotate(-45)" fill="#fff"/><rect width="4.668" height="4.668" transform="translate(0 100.311) rotate(-45)" fill="#fff"/></g><g transform="translate(214.822 94.618)"><rect width="4.668" height="4.668" transform="matrix(0.707, -0.707, 0.707, 0.707, 0, 80.909)" fill="#fff"/><rect width="4.668" height="4.668" transform="matrix(0.707, -0.707, 0.707, 0.707, 0, 61.507)" fill="#fff"/><rect width="4.668" height="4.668" transform="translate(0 42.105) rotate(-45)" fill="#fff"/><rect width="4.668" height="4.668" transform="translate(0 22.703) rotate(-45)" fill="#fff"/><rect width="4.668" height="4.668" transform="translate(0 3.301) rotate(-45)" fill="#fff"/><rect width="4.668" height="4.668" transform="translate(0 100.311) rotate(-45)" fill="#fff"/></g><g transform="translate(187.247 94.618)"><rect width="4.668" height="4.668" transform="matrix(0.707, -0.707, 0.707, 0.707, 0, 80.909)" fill="#fff"/><rect width="4.668" height="4.668" transform="matrix(0.707, -0.707, 0.707, 0.707, 0, 61.507)" fill="#fff"/><rect width="4.668" height="4.668" transform="translate(0 42.105) rotate(-45)" fill="#fff"/><rect width="4.668" height="4.668" transform="translate(0 22.703) rotate(-45)" fill="#fff"/><rect width="4.668" height="4.668" transform="translate(0 3.301) rotate(-45)" fill="#fff"/><rect width="4.668" height="4.668" transform="translate(0 100.311) rotate(-45)" fill="#fff"/></g><g transform="translate(159.673 94.618)"><rect width="4.667" height="4.667" transform="translate(0 80.909) rotate(-45)" fill="#fff"/><rect width="4.667" height="4.667" transform="translate(0 61.507) rotate(-45)" fill="#fff"/><rect width="4.667" height="4.667" transform="matrix(0.707, -0.707, 0.707, 0.707, 0, 42.105)" fill="#fff"/><rect width="4.667" height="4.667" transform="matrix(0.707, -0.707, 0.707, 0.707, 0, 22.703)" fill="#fff"/><rect width="4.668" height="4.668" transform="matrix(0.707, -0.707, 0.707, 0.707, 0, 3.301)" fill="#fff"/><rect width="4.668" height="4.668" transform="translate(0 100.311) rotate(-45)" fill="#fff"/></g><g transform="translate(132.098 94.618)"><rect width="4.667" height="4.667" transform="translate(0 80.909) rotate(-45)" fill="#fff"/><rect width="4.667" height="4.667" transform="translate(0 61.507) rotate(-45)" fill="#fff"/><rect width="4.667" height="4.667" transform="matrix(0.707, -0.707, 0.707, 0.707, 0, 42.105)" fill="#fff"/><rect width="4.667" height="4.667" transform="matrix(0.707, -0.707, 0.707, 0.707, 0, 22.703)" fill="#fff"/><rect width="4.668" height="4.668" transform="matrix(0.707, -0.707, 0.707, 0.707, 0, 3.301)" fill="#fff"/><rect width="4.668" height="4.668" transform="translate(0 100.311) rotate(-45)" fill="#fff"/></g><g transform="translate(104.524 94.618)"><rect width="4.667" height="4.667" transform="translate(0 80.909) rotate(-45)" fill="#fff"/><rect width="4.667" height="4.667" transform="translate(0 61.507) rotate(-45)" fill="#fff"/><rect width="4.667" height="4.667" transform="matrix(0.707, -0.707, 0.707, 0.707, 0, 42.105)" fill="#fff"/><rect width="4.667" height="4.667" transform="matrix(0.707, -0.707, 0.707, 0.707, 0, 22.703)" fill="#fff"/><rect width="4.668" height="4.668" transform="matrix(0.707, -0.707, 0.707, 0.707, 0, 3.301)" fill="#fff"/><rect width="4.668" height="4.668" transform="translate(0 100.311) rotate(-45)" fill="#fff"/></g><g transform="translate(76.95 94.618)"><rect width="4.668" height="4.668" transform="matrix(0.707, -0.707, 0.707, 0.707, 0, 80.909)" fill="#fff"/><rect width="4.668" height="4.668" transform="matrix(0.707, -0.707, 0.707, 0.707, 0, 61.507)" fill="#fff"/><rect width="4.668" height="4.668" transform="translate(0 42.105) rotate(-45)" fill="#fff"/><rect width="4.668" height="4.668" transform="translate(0 22.703) rotate(-45)" fill="#fff"/><rect width="4.668" height="4.668" transform="translate(0 3.301) rotate(-45)" fill="#fff"/><rect width="4.668" height="4.668" transform="translate(0 100.311) rotate(-45)" fill="#fff"/></g><g transform="translate(49.375 94.618)"><rect width="4.668" height="4.668" transform="matrix(0.707, -0.707, 0.707, 0.707, 0, 80.909)" fill="#fff"/><rect width="4.668" height="4.668" transform="matrix(0.707, -0.707, 0.707, 0.707, 0, 61.507)" fill="#fff"/><rect width="4.668" height="4.668" transform="translate(0 42.105) rotate(-45)" fill="#fff"/><rect width="4.668" height="4.668" transform="translate(0 22.703) rotate(-45)" fill="#fff"/><rect width="4.668" height="4.668" transform="translate(0 3.301) rotate(-45)" fill="#fff"/><rect width="4.668" height="4.668" transform="translate(0 100.311) rotate(-45)" fill="#fff"/></g><g transform="translate(297.545 94.618)"><rect width="4.668" height="4.668" transform="matrix(0.707, -0.707, 0.707, 0.707, 0, 80.909)" fill="#fff"/><rect width="4.668" height="4.668" transform="matrix(0.707, -0.707, 0.707, 0.707, 0, 61.507)" fill="#fff"/><rect width="4.668" height="4.668" transform="translate(0 42.105) rotate(-45)" fill="#fff"/><rect width="4.668" height="4.668" transform="translate(0 22.703) rotate(-45)" fill="#fff"/><rect width="4.668" height="4.668" transform="translate(0 3.301) rotate(-45)" fill="#fff"/><rect width="4.668" height="4.668" transform="translate(0 100.311) rotate(-45)" fill="#fff"/></g><g transform="translate(21.8 94.618)"><rect width="4.668" height="4.668" transform="matrix(0.707, -0.707, 0.707, 0.707, 0, 80.909)" fill="#fff"/><rect width="4.668" height="4.668" transform="matrix(0.707, -0.707, 0.707, 0.707, 0, 61.507)" fill="#fff"/><rect width="4.668" height="4.668" transform="translate(0 42.105) rotate(-45)" fill="#fff"/><rect width="4.668" height="4.668" transform="translate(0 22.703) rotate(-45)" fill="#fff"/><rect width="4.668" height="4.668" transform="translate(0 3.301) rotate(-45)" fill="#fff"/><rect width="4.668" height="4.668" transform="translate(0 100.311) rotate(-45)" fill="#fff"/></g></g></g></svg>