<svg xmlns="http://www.w3.org/2000/svg" width="759.636" height="704.495" viewBox="0 0 759.636 704.495"><g transform="translate(-1160.108 0.495)"><path d="M2178.892,0V704.5c-204.313-62.876-268.6-90.527-361.5-268.583-95.751-183.524-236.787-37.066-361.253-203.323C1390.3,144.647,1426.327,53.928,1458.721,0Z" transform="translate(-259.149 -0.495)" fill="#ebf6ff"/><path d="M1199.492,305.679c-10.7.824-17.436-3.166-25.777-3.216-6.354-.038-41.1,13.6-65.124,11.937s-28.558-9.935-31.127-10.275c-3.512-.14-10.048,5.779-30.512,4.034-11.021-.939-20.389-6.085-20.106-11.74,1.209-15.563,30.22-8.915,38.228-9.519,1.134-7.48,5.817-14.052,32.637-12.844-2.87-3.022-1.51-21.758,29.163-22.362,34.753,1.964,47.656,26.448,51.676,29.615,2.247,1.771,17.146-1.991,28.486.427,20.074,4.28,15.18,22.193-7.544,23.943" transform="translate(285.351 -25.694)" fill="#fff" fill-rule="evenodd"/><path d="M1474.686,533.263c12.768,4.3,89.171,0,105.964.277-1.551-.668-5.372-1.485-10.78-2.275,3.787-3.757-2.095-12.745-7.12-11.132a3.526,3.526,0,0,0-4.132-3.78,8.108,8.108,0,0,0-9.776-5.9,10.8,10.8,0,0,0-12.852-6.257,16.416,16.416,0,0,0-31.1,9.458,9.231,9.231,0,0,0-10.982,10.822,3.452,3.452,0,0,0-1.6,5.5,136.022,136.022,0,0,0-17.629,3.289" transform="translate(171.314 -74.714)" fill="#fff" fill-rule="evenodd"/><path d="M1714.207,264.622c0,6.912-19.8,13.074-42.959,14.57s-38.1-2.989-41.092-2.8-45.015,16.062-79.382,6.536c-17.048-4.579-21.84-12.592-20.533-18.478,3.128-14.088,30.573-5.878,37.53-9.259,2.382-1.262,6.678-17.137,20.313-22.741s19.052.56,21.947.56,11.588-16.627,27.651-14.292,17.947,27.624,20,28.092,3.524-3.324,7.727-2.67,5.418,11.191,7.847,11.751,7.472-2.5,11.673-2.686,10.18,7.472,12.982,7.285,14.289-6.817,16.3,4.135" transform="translate(-36.321 -117.616)" fill="#fff" fill-rule="evenodd"/></g></svg>