<svg xmlns="http://www.w3.org/2000/svg" width="57" height="56" viewBox="0 0 57 56"><ellipse cx="28.5" cy="28" rx="28.5" ry="28" fill="#d0d0d0"/><g transform="translate(-58.6 -69.858)"><path d="M96.214,111.783s-1.237-1.477-2.267-2.748a10.893,10.893,0,0,0,6.218-4.054,19.659,19.659,0,0,1-3.951,2.027,24.637,24.637,0,0,1-4.982,1.477,24.067,24.067,0,0,1-8.9-.034,26.155,26.155,0,0,1-5.05-1.477,20.135,20.135,0,0,1-2.508-1.168c-.1-.069-.206-.1-.309-.172-.069-.034-.1-.069-.137-.069-.618-.344-.962-.584-.962-.584A10.738,10.738,0,0,0,79.38,109c-1.031,1.306-2.3,2.817-2.3,2.817-7.593-.24-10.478-5.188-10.478-5.188a45.36,45.36,0,0,1,4.947-19.858,17.025,17.025,0,0,1,9.62-3.573l.344.412c-6.184,1.752-9,4.466-9,4.466s.756-.412,2.027-.962a26.919,26.919,0,0,1,7.8-2.164,3.385,3.385,0,0,1,.584-.069,29.069,29.069,0,0,1,6.94-.069A28.559,28.559,0,0,1,100.2,88.078s-2.714-2.577-8.555-4.329l.481-.55a16.953,16.953,0,0,1,9.62,3.573,45.36,45.36,0,0,1,4.947,19.858c0-.034-2.886,4.913-10.478,5.153Z" fill="#fff"/><path d="M112.144,120.1a3.79,3.79,0,1,0,3.5,3.779A3.629,3.629,0,0,0,112.144,120.1Zm-12.54,0a3.79,3.79,0,1,0,3.5,3.779A3.629,3.629,0,0,0,99.6,120.1Z" transform="translate(-19.365 -24.223)" fill="#d0d0d0"/></g></svg>