<svg xmlns="http://www.w3.org/2000/svg" width="56" height="56" viewBox="0 0 56 56"><g transform="translate(-172)"><circle cx="28" cy="28" r="28" transform="translate(172)" fill="#d0d0d0"/><g transform="translate(-100.4 -340.863)"><g transform="translate(284.4 352.863)"><path d="M307.724,352.863H293.277a8.877,8.877,0,0,0-8.877,8.877v14.448a8.877,8.877,0,0,0,8.877,8.877h14.448a8.876,8.876,0,0,0,8.876-8.877V361.74A8.876,8.876,0,0,0,307.724,352.863ZM314,376.15a6.312,6.312,0,0,1-6.311,6.312H293.314A6.312,6.312,0,0,1,287,376.15V361.777a6.312,6.312,0,0,1,6.312-6.311h14.374A6.311,6.311,0,0,1,314,361.777Z" transform="translate(-284.4 -352.863)" fill="#fff"/><path d="M303.811,363.789a8.486,8.486,0,1,0,8.486,8.486A8.485,8.485,0,0,0,303.811,363.789Zm0,14.02a5.535,5.535,0,1,1,5.535-5.535A5.535,5.535,0,0,1,303.811,377.809Z" transform="translate(-287.711 -356.174)" fill="#fff"/><path d="M321.166,362.555a1.9,1.9,0,1,1-1.9-1.9A1.9,1.9,0,0,1,321.166,362.555Z" transform="translate(-294.387 -355.223)" fill="#fff"/></g></g></g></svg>