<svg xmlns="http://www.w3.org/2000/svg" width="57" height="56" viewBox="0 0 57 56"><g transform="translate(-336)"><ellipse cx="28.5" cy="28" rx="28.5" ry="28" transform="translate(336)" fill="#d0d0d0"/><g transform="translate(62.382 -114.724)"><g transform="translate(288.618 128.724)"><path d="M316.356,145.7v10.389h-6.023V146.4c0-2.434-.87-4.1-3.051-4.1a3.3,3.3,0,0,0-3.09,2.2,4.126,4.126,0,0,0-.2,1.468v10.118H297.97s.081-16.417,0-18.116h6.024v2.567c-.013.02-.029.04-.04.06h.04v-.06a5.98,5.98,0,0,1,5.428-2.993c3.963,0,6.934,2.59,6.934,8.153Zm-27.738,10.389h6.021V137.971h-6.021Zm0,0,6.2-24.263a3.1,3.1,0,1,1-3.1-3.1A3.1,3.1,0,0,1,294.819,131.825Z" transform="translate(-288.618 -128.724)" fill="#fff"/></g></g></g></svg>