<svg xmlns="http://www.w3.org/2000/svg" xmlns:xlink="http://www.w3.org/1999/xlink" viewBox="0 0 978.31 1023.53"><defs><linearGradient id="a" x1="0.5" x2="0.5" y2="1" gradientUnits="objectBoundingBox"><stop offset="0" stop-color="#f1d10f"/><stop offset="1" stop-color="#e8a606"/></linearGradient><filter id="b" x="543.885" y="331.925" width="164.211" height="144.711" filterUnits="userSpaceOnUse"><feOffset dx="-2" dy="1" input="SourceAlpha"/><feGaussianBlur stdDeviation="0.5" result="c"/><feFlood flood-color="#fff" flood-opacity="0.729"/><feComposite operator="in" in2="c"/><feComposite in="SourceGraphic"/></filter><filter id="d" x="278.616" y="331.925" width="173.015" height="126.921" filterUnits="userSpaceOnUse"><feOffset dx="-2" dy="1" input="SourceAlpha"/><feGaussianBlur stdDeviation="0.5" result="e"/><feFlood flood-color="#fff" flood-opacity="0.729"/><feComposite operator="in" in2="e"/><feComposite in="SourceGraphic"/></filter><clipPath id="g"><rect width="978.31" height="1023.53"/></clipPath></defs><g id="f" clip-path="url(#g)"><rect width="978.31" height="1023.53" fill="#fff"/><path d="M869.124,560.936a83.465,83.465,0,0,1-83.2,83.2h-593.5a83.2,83.2,0,0,1,0-166.4h593.5A83.425,83.425,0,0,1,869.124,560.936Z" fill="#ebf6ff"/><path d="M866.371,582.114a83.6,83.6,0,0,1-80.446,62.021h-593.5a83.51,83.51,0,0,1-80.446-62.021,83.6,83.6,0,0,1,80.446-62.022h593.5A83.51,83.51,0,0,1,866.371,582.114Z" fill="#fff" stroke="#ebf6ff" stroke-miterlimit="10" stroke-width="1"/><path d="M713.058,327.221V659.262a223.882,223.882,0,1,1-447.764,0V327.221A118.737,118.737,0,0,1,384.042,208.473H594.31A118.737,118.737,0,0,1,713.058,327.221Z" fill="url(#a)"/><path d="M503.547,882.69c-4.75.3-9.53.454-14.371.454A223.688,223.688,0,0,1,265.294,659.262V327.221A118.737,118.737,0,0,1,384.042,208.473h28.742A118.737,118.737,0,0,0,294.036,327.221V659.262A223.725,223.725,0,0,0,503.547,882.69Z" fill="#f1c40f" opacity="0.34" style="mix-blend-mode:multiply;isolation:isolate"/><circle cx="37.532" cy="37.532" r="37.532" transform="translate(345.305 357.455)"/><circle cx="12.511" cy="12.511" r="12.511" transform="translate(376.581 376.221)" fill="#fff"/><circle cx="37.532" cy="37.532" r="37.532" transform="translate(570.495 357.455)"/><circle cx="12.511" cy="12.511" r="12.511" transform="translate(601.771 376.221)" fill="#fff"/><path d="M428.4,235.81,413.486,124.867a18.208,18.208,0,0,0-20.41-15.573h0c-.052.008-.1.022-.152.029a17.962,17.962,0,0,0-3.264.454L332.2,123.605a17.878,17.878,0,0,0-1.965.6,25.707,25.707,0,1,0,29.908,30.02l20.014-4.816,12.264,91.241a18.2,18.2,0,0,0,20.409,15.572h0A18.207,18.207,0,0,0,428.4,235.81Z" fill="#1e1e1e"/><path d="M636.019,124.2a17.879,17.879,0,0,0-1.965-.6L576.59,109.777a17.94,17.94,0,0,0-3.263-.454c-.052-.007-.1-.021-.152-.029h0a18.207,18.207,0,0,0-20.41,15.573L537.852,235.81a18.206,18.206,0,0,0,15.572,20.409h0a18.2,18.2,0,0,0,20.409-15.572L586.1,149.406l20.013,4.816a25.708,25.708,0,1,0,29.908-30.02Z" fill="#1e1e1e"/><path d="M521.133,880.878a221.776,221.776,0,0,0,66.37-20.425H390.85a221.683,221.683,0,0,0,62.786,19.867s22,34.027,34.027,34.027C499.5,914.347,521.133,880.878,521.133,880.878Z" fill="#1e1e1e"/><g transform="matrix(1, 0, 0, 1, 0, 0)" filter="url(#b)"><path d="M708.1,389.7c0,58.875-25.474,78.632-48.528,84.44,17.82-10.226,33.4-32.341,33.4-78.389,0-42.205-18.455-57.271-35.76-57.271H555.947a42.137,42.137,0,0,0-8.562.847,43.976,43.976,0,0,1,23.69-6.9H672.336C689.641,332.425,708.1,347.491,708.1,389.7Z" fill="#fff" opacity="0.73"/></g><path d="M692.969,395.747c0,46.048-15.581,68.163-33.4,78.389,0,.031,0,.031-.03,0a73.592,73.592,0,0,1-18.092,2.178H604.9a78.285,78.285,0,0,1-78.178-78.207v-21.3a44.357,44.357,0,0,1,20.664-37.485,42.137,42.137,0,0,1,8.562-.847H657.209C674.514,338.476,692.969,353.542,692.969,395.747Z" fill="#fff" opacity="0.4"/><g transform="matrix(1, 0, 0, 1, 0, 0)" filter="url(#d)"><path d="M451.631,376.808v21.3a78.077,78.077,0,0,1-26.05,58.239,78.055,78.055,0,0,0,20-52.188v-21.3a44.4,44.4,0,0,0-44.353-44.383H299.965a28.9,28.9,0,0,0-17.849,6.141c6.716-8.592,15.459-12.192,23.9-12.192H407.277A44.4,44.4,0,0,1,451.631,376.808Z" fill="#fff" opacity="0.73"/></g><path d="M445.58,382.859v21.3a78.055,78.055,0,0,1-20,52.188,77.815,77.815,0,0,1-52.128,19.968H336.906c-24.9,0-66.65-11.254-66.65-86.618,0-21.6,4.841-36.093,11.86-45.079a28.9,28.9,0,0,1,17.849-6.141H401.227A44.4,44.4,0,0,1,445.58,382.859Z" fill="#fff" opacity="0.4"/><circle cx="9.076" cy="9.076" r="9.076" transform="translate(354.544 226.626)" fill="#f1c40f" opacity="0.66" style="mix-blend-mode:multiply;isolation:isolate"/><circle cx="13.614" cy="13.614" r="13.614" transform="translate(324.29 244.778)" fill="#f1c40f" opacity="0.66" style="mix-blend-mode:multiply;isolation:isolate"/><circle cx="15.127" cy="15.127" r="15.127" transform="translate(348.493 272.007)" fill="#f1c40f" opacity="0.66" style="mix-blend-mode:multiply;isolation:isolate"/><path d="M713.058,327.221V659.262A223.261,223.261,0,0,1,660.869,802.97c-1.029,1.24-2.087,2.451-3.116,3.661A228.405,228.405,0,0,0,704.92,667.34v-338c0-66.741-53.732-120.866-120.05-120.866h9.44A118.737,118.737,0,0,1,713.058,327.221Z" fill="#fff" opacity="0.4"/><path d="M672.336,319.929H571.075c-13.313,0-28.228,7.353-36.154,12.738a70.72,70.72,0,0,1-39.482,12.283H482.913a70.72,70.72,0,0,1-39.482-12.283c-7.926-5.385-22.841-12.738-36.154-12.738H306.016c-22.266,0-48.285,18.274-48.285,69.767,0,89.462,55.365,99.113,79.175,99.113h36.547c48.589,0,79.962-39.511,90.491-86.437,2.934-13.069,12.374-31.343,25.232-31.343s22.3,18.274,25.232,31.343c10.529,46.926,41.9,86.437,90.491,86.437h36.547c23.81,0,79.175-9.651,79.175-99.113C720.621,338.2,694.6,319.929,672.336,319.929Zm-220.7,78.178a78.285,78.285,0,0,1-78.178,78.207H336.906c-24.9,0-66.65-11.254-66.65-86.618,0-42.205,18.455-57.271,35.76-57.271H407.277a44.4,44.4,0,0,1,44.354,44.383Zm189.815,78.207H604.9a78.285,78.285,0,0,1-78.178-78.207v-21.3a44.4,44.4,0,0,1,44.354-44.383H672.336c17.3,0,35.76,15.066,35.76,57.271C708.1,465.06,666.345,476.314,641.446,476.314Z"/><rect width="447.764" height="84.712" transform="translate(265.294 560.936)" fill="#1e1e1e"/><path d="M705.191,718.258a223.036,223.036,0,0,1-44.322,84.712H317.483a223.036,223.036,0,0,1-44.322-84.712Z" fill="#1e1e1e"/></g></svg>