<svg xmlns="http://www.w3.org/2000/svg" width="714.37" height="671.823" viewBox="0 0 714.37 671.823"><g transform="translate(-1038.117 -331)"><g transform="translate(72.074 156.113)"><path d="M1501.464,830.232,1115.673,607.495c-4.466-2.578-3.9-7.123,1.256-10.1l184.865-106.732c5.156-2.977,13.027-3.3,17.493-.725l385.791,222.737c4.465,2.578,3.9,7.123-1.256,10.1L1518.957,829.506C1513.8,832.483,1505.929,832.81,1501.464,830.232Z" transform="translate(-27.677 -55.227)" fill="#a8c4e5" opacity="0.4"/><path d="M1758.331,515.91l0-.038c0-.14,0-.279-.006-.419s-.011-.281-.019-.422c0-.02,0-.039,0-.059l0-.058c-.007-.1-.015-.2-.023-.3q-.021-.207-.046-.415c-.008-.065-.019-.131-.028-.2,0-.028-.007-.057-.011-.085-.007-.045-.012-.088-.019-.134-.022-.138-.045-.277-.072-.415s-.051-.262-.079-.393l0-.015v-.011q-.047-.209-.1-.419c-.035-.139-.071-.277-.109-.414-.011-.037-.022-.074-.032-.11s-.016-.053-.024-.079c-.021-.075-.041-.148-.064-.222q-.061-.2-.127-.4c-.033-.1-.069-.2-.1-.3l-.015-.042-.015-.045q-.068-.187-.14-.373c-.046-.119-.094-.238-.144-.357-.021-.05-.043-.1-.065-.15l-.027-.065c-.02-.047-.039-.093-.06-.14-.054-.122-.11-.246-.167-.367s-.117-.243-.177-.364l-.018-.035-.028-.054c-.064-.128-.13-.256-.2-.383s-.132-.234-.2-.351c-.045-.078-.088-.157-.133-.234-.021-.036-.041-.075-.062-.11-.113-.189-.233-.373-.352-.558-.039-.06-.076-.123-.115-.182l-.018-.028q-.231-.348-.48-.685c-.024-.032-.049-.062-.072-.094l-.065-.086c-.058-.076-.115-.153-.174-.229-.1-.126-.2-.249-.3-.372-.039-.047-.079-.092-.118-.138l-.061-.071c-.037-.043-.074-.088-.112-.131-.1-.114-.2-.226-.3-.336-.077-.084-.157-.165-.236-.247l-.042-.045-.039-.041q-.166-.168-.335-.331c-.117-.112-.235-.222-.355-.329l-.007-.007-.009-.008q-.173-.154-.349-.3c-.123-.1-.248-.206-.374-.305l-.047-.036-.053-.041c-.091-.071-.182-.142-.275-.21q-.189-.139-.38-.27c-.035-.024-.071-.047-.107-.071l-.035-.025-.011,0c-.076-.05-.15-.1-.226-.15q-.191-.12-.385-.235l-2.084-1.2-11.418,6.18s2.73,1.583,2.857,1.663.255.166.38.252.255.178.38.27.251.188.376.286c.052.041.1.084.155.126.2.161.393.326.584.5h0v0c.194.174.382.354.567.539.024.023.047.045.07.07q.264.266.517.547l.077.085q.246.276.479.564l.083.1q.231.288.45.586c.075.1.146.208.219.313.089.127.178.251.264.38.1.15.192.3.286.455.062.1.126.2.185.3s.1.178.151.266c.09.157.18.315.264.474.023.043.044.086.067.129.113.22.224.442.329.666l.026.056q.163.354.311.714l.029.073c.094.234.183.47.266.707l.032.091q.12.348.224.7l.032.106c.066.234.128.466.184.7.008.036.017.071.025.107.054.235.1.47.145.7l.017.1q.062.355.1.709c0,.032.007.062.01.094.027.238.048.475.062.711.007.118.013.238.016.355,0,.14.006.28.006.419s0,.292-.011.438-.015.291-.027.435-.029.314-.049.469c-.015.121-.032.241-.052.361,0,0-.039.239-.106.65L1707.6,768.527c-.187,1.159-4.682,8.579-3.667,7.989l10.793-9.147a12.573,12.573,0,0,0,4.28-7.58l38.721-239.313c.188-1.159.47-2.9.47-2.9.019-.12.036-.24.052-.361.013-.1.022-.205.031-.308,0-.006,0-.011,0-.017s0-.028,0-.042c0-.033.007-.067.01-.1.011-.144.02-.29.027-.435,0-.116.006-.232.008-.349C1758.331,515.944,1758.331,515.927,1758.331,515.91Z" transform="translate(-139.265 -57.678)" fill="#8db0da"/><g transform="translate(1170.29 230.883)"><path d="M1647.874,459.258c5.144,2.969,8.6,9.794,7.713,15.249L1615.55,721.952c-.878,5.459-5.763,7.469-10.906,4.5l-378.974-218.8c-5.144-2.969-8.6-9.794-7.713-15.249l40.032-247.449c.883-5.455,5.763-7.469,10.906-4.5Z" transform="translate(-1217.819 -239.084)" fill="#fff"/></g><path d="M1763.982,479.413v-.038c0-.14,0-.28-.006-.42s-.01-.28-.02-.421c0-.02,0-.04,0-.059l0-.058c-.007-.1-.014-.2-.024-.3-.013-.138-.029-.277-.045-.415-.008-.066-.019-.131-.028-.2,0-.028-.007-.057-.012-.085-.007-.045-.011-.089-.019-.134-.022-.139-.045-.277-.072-.415s-.051-.263-.08-.393l0-.015,0-.011c-.031-.14-.063-.28-.1-.419s-.07-.276-.108-.414c-.01-.036-.022-.073-.032-.109s-.016-.053-.023-.08c-.022-.074-.043-.148-.065-.222q-.061-.2-.127-.394c-.033-.1-.069-.2-.1-.3l-.015-.042-.016-.045c-.045-.125-.092-.249-.14-.373s-.094-.238-.144-.357c-.021-.05-.043-.1-.065-.151l-.028-.065c-.02-.046-.039-.093-.06-.14q-.081-.185-.167-.368c-.058-.122-.116-.243-.177-.364l-.018-.034-.028-.055q-.1-.192-.2-.382c-.064-.118-.133-.234-.2-.351-.044-.079-.088-.157-.133-.234-.021-.036-.041-.074-.062-.11-.113-.189-.233-.373-.352-.557-.039-.061-.075-.122-.115-.183l-.018-.028q-.232-.348-.48-.685l-.072-.095-.066-.085c-.058-.076-.114-.154-.174-.23q-.148-.187-.3-.372l-.118-.138-.061-.071c-.037-.044-.074-.088-.112-.131-.1-.114-.2-.226-.3-.336-.077-.084-.157-.165-.236-.247l-.043-.045-.038-.041q-.165-.168-.335-.331c-.117-.112-.235-.221-.355-.329l-.007-.007-.009-.007q-.172-.156-.349-.3c-.123-.1-.248-.206-.374-.306l-.047-.036-.054-.041c-.091-.071-.183-.142-.275-.21-.126-.093-.252-.183-.38-.27-.035-.024-.071-.047-.107-.071l-.035-.025-.011-.006c-.075-.05-.151-.1-.226-.149q-.191-.122-.384-.235l-9.177-5.3-11.264,6.8s9.668,5.06,9.8,5.141.255.165.38.251.255.178.38.27.252.189.376.286c.052.041.1.084.155.127.2.161.394.325.584.5h0v0c.193.174.381.354.566.539l.071.07q.264.267.517.547c.025.029.051.058.077.086.164.183.324.372.48.563l.083.1q.23.287.45.586c.074.1.146.208.219.313.089.127.179.252.265.381.1.149.192.3.286.455.062.1.126.2.185.3s.1.178.151.267c.09.157.18.314.264.474l.066.128c.114.221.225.442.329.667l.025.055q.164.354.311.714l.03.074c.094.234.183.47.266.706l.032.091q.121.349.224.7c.011.035.021.071.031.106q.1.349.185.7c.008.036.017.072.025.108.054.234.1.47.145.7.006.035.011.069.017.1.042.236.076.473.1.708,0,.032.007.063.01.094.027.238.048.475.062.712.007.118.013.237.016.355,0,.14.007.28.006.419s0,.292-.01.437-.015.291-.027.436-.029.313-.049.468c-.015.122-.032.242-.052.361,0,0-.039.238-.105.65L1713.248,732.03c-.187,1.158-4.682,8.579-3.667,7.989l10.792-9.147a12.569,12.569,0,0,0,4.28-7.579l38.722-239.314.47-2.9c.019-.119.036-.24.052-.361.013-.1.022-.2.032-.307,0-.006,0-.011,0-.018s0-.028,0-.041c0-.034.007-.067.01-.1q.017-.217.027-.436c.005-.115.007-.232.008-.348Z" transform="translate(-140.332 -50.014)" fill="#8db0da"/><g transform="translate(1174.474 202.049)"><path d="M1653.032,423.714c5.143,2.97,8.6,9.795,7.712,15.249l-40.036,247.444c-.879,5.459-5.763,7.469-10.907,4.5l-378.973-218.8c-5.143-2.97-8.6-9.794-7.713-15.249l40.032-247.448c.884-5.455,5.763-7.469,10.907-4.5Z" transform="translate(-1222.976 -203.54)" fill="#45446c"/></g><g transform="translate(1184.935 233.117)"><path d="M1641.933,446.868c4.878,2.764,8.185,8.709,7.385,13.286l-36.211,207.592c-.794,4.579-5.4,6.045-10.274,3.281L1243.376,467.4c-4.879-2.764-8.185-8.71-7.386-13.286l36.207-207.6c.8-4.577,5.4-6.045,10.274-3.282Z" transform="translate(-1235.871 -241.838)" fill="#a8c4e5"/></g><path d="M1561.79,804.178l-.084-11.506-14.813,5.73-3.174-7.314L1172.986,577.044c-4.465-2.578-12.623-2.252-17.778.725l-159.9,92.152v-2.566l-28.393,11.854v8.609h-.354c.375,2.434,1.3,4.1,2.809,4.973l385.791,223.642c4.466,2.578,12.337,2.7,17.493-.273l184.865-106.506c2.815-1.625,4.25-3.6,4.257-5.588Z" transform="translate(-0.098 -71.671)" fill="#45446c"/><path d="M1354.847,902.339,969.056,679.6c-4.466-2.578-3.9-7.123,1.256-10.1L1155.176,562.77c5.156-2.977,13.028-3.3,17.493-.725l385.792,222.737c4.465,2.578,3.9,7.123-1.256,10.1L1372.34,901.613C1367.184,904.59,1359.312,904.916,1354.847,902.339Z" transform="translate(0 -68.839)" fill="#e1eaf4"/><g transform="translate(1204.087 309.775)" opacity="0.68"><path d="M1543.407,599.869,1294.575,456.205c-4.666-2.694-9.476-1.235-11.835,3.144-4.261-.581-8.068,2.15-9.294,7.243l-11.766,48.864-1.8,7.495a14.739,14.739,0,0,0-.392,3.769,17.855,17.855,0,0,0,3.167,9.646,14.164,14.164,0,0,0,4.459,4.2l87.92,50.76,10.943,6.318h0l149.97,86.586c.17.1.341.174.511.261.311.159.621.3.933.425a9.6,9.6,0,0,0,1.68.513,8.464,8.464,0,0,0,1.021.138,7.738,7.738,0,0,0,6.873-3.181,9.874,9.874,0,0,0,.817-1.3c4.261.581,8.068-2.15,9.293-7.243l13.572-56.359C1552.211,610.966,1548.972,603.082,1543.407,599.869Z" transform="translate(-1259.479 -358.707)" fill="#a8c4e5"/><path d="M1577.636,481.355,1328.8,337.691c-4.666-2.694-9.476-1.235-11.835,3.143-4.261-.581-8.067,2.15-9.294,7.243l-11.49,47.714-2.082,8.645a14.729,14.729,0,0,0-.392,3.769c.01.484.048.97.1,1.455a17.735,17.735,0,0,0,.678,3.245c.164.532.342,1.06.554,1.575a17.766,17.766,0,0,0,1.144,2.3q.326.55.689,1.071a14.141,14.141,0,0,0,4.46,4.2L1550.17,565.712a10.172,10.172,0,0,0,3.124,1.2,7.855,7.855,0,0,0,8.494-3.931c.078-.13.144-.275.217-.411,4.261.581,8.067-2.151,9.294-7.244l13.572-56.359C1586.439,492.452,1583.2,484.567,1577.636,481.355Z" transform="translate(-1265.941 -336.335)" fill="#a8c4e5"/></g><path d="M1672.064,414.613,1296.446,197.75h0l-.024-.014-.56-.323,0,0c-.426-.245-.933-.536-.991-.568-.13-.07-.259-.137-.388-.2s-.263-.127-.393-.186-.263-.114-.393-.166-.273-.106-.408-.154-.273-.092-.409-.133-.291-.084-.436-.12l-.025-.006,0,0-.04-.008c-.126-.03-.251-.059-.375-.083-.064-.013-.127-.021-.191-.032l-.156-.026c-.04-.006-.081-.015-.121-.019-.154-.021-.306-.036-.458-.047l-.038,0h-.006q-.27-.018-.535-.017c-.02,0-.04,0-.06,0-.081,0-.16.007-.24.011s-.191,0-.285.013c-.027,0-.052.009-.079.011-.131.014-.258.035-.385.055-.069.011-.14.017-.208.03-.016,0-.03.01-.046.012a6.225,6.225,0,0,0-.741.2c-.017.006-.036.009-.052.015s-.05.026-.078.036a5.8,5.8,0,0,0-.9.415l-11.03,6.41a5.824,5.824,0,0,1,.884-.408c.117-.043.238-.079.359-.115.144-.044.289-.087.438-.12q.264-.058.537-.095c.069-.009.136-.023.205-.029a6.744,6.744,0,0,1,.772-.033l.146,0a7.315,7.315,0,0,1,.809.066l.059.01a8.352,8.352,0,0,1,.877.177l.072.019q.434.116.877.28l.087.032c.312.119.625.255.941.41q.192.095.385.2c.1.054.2.11.3.167l2.079,1.2h0l376.2,217.2a1.391,1.391,0,0,0,1.394,0l8.256-4.8A1.391,1.391,0,0,0,1672.064,414.613ZM1292.736,198.422Z" transform="translate(-58.585 0)" fill="#a8c4e5"/><path d="M1522.4,358.651c0,2.383-1.684,3.343-3.76,2.144a8.283,8.283,0,0,1-3.759-6.485c0-2.383,1.684-3.342,3.76-2.143A8.281,8.281,0,0,1,1522.4,358.651Z" transform="translate(-103.605 -29.451)" fill="#fff"/><path d="M1246.2,830.008,1152.835,776.1c-1.081-.624-.944-1.724.3-2.444l44.74-25.831a4.722,4.722,0,0,1,4.234-.175l93.368,53.905c1.081.624.943,1.724-.3,2.444l-44.74,25.832A4.724,4.724,0,0,1,1246.2,830.008Z" transform="translate(-35.124 -104.126)" fill="#a8c4e5"/><g transform="translate(1063.317 510.048)"><g transform="translate(0)"><path d="M1221.446,607.635a2.95,2.95,0,0,1-2.547-.3l-23.422-13.517c-.845-.488-1.076-1.148-.516-1.471l15.516-8.963a2.946,2.946,0,0,1,2.549.3l23.422,13.516c.844.487,1.077,1.146.514,1.471Z" transform="translate(-1106.473 -583.211)" fill="#a8c4e5"/><path d="M1254.94,657.384a2.931,2.931,0,0,1-2.554-.3l-23.42-13.515c-.844-.487-1.068-1.141-.5-1.469l15.521-8.966a2.938,2.938,0,0,1,2.532.3l23.419,13.515c.857.494,1.076,1.15.526,1.468Z" transform="translate(-1112.796 -592.603)" fill="#a8c4e5"/><path d="M1238.008,678.038a2.937,2.937,0,0,1-2.541-.3l-23.425-13.518c-.831-.479-1.082-1.142-.52-1.467l15.524-8.968a2.981,2.981,0,0,1,2.538.3l23.425,13.517c.842.486,1.073,1.148.523,1.465Z" transform="translate(-1109.599 -596.501)" fill="#a8c4e5"/><path d="M1192.2,682.024a2.951,2.951,0,0,1-2.537-.294l-23.423-13.517c-.834-.481-1.066-1.145-.512-1.465l15.52-8.966a2.959,2.959,0,0,1,2.542.292l23.423,13.517c.838.484,1.063,1.145.505,1.467Z" transform="translate(-1100.955 -597.255)" fill="#a8c4e5"/><path d="M1112.742,670.07a2.948,2.948,0,0,1-2.545-.3l-23.422-13.517c-.845-.487-1.078-1.146-.518-1.47l18.223-10.526a2.973,2.973,0,0,1,2.545.3l23.422,13.516c.844.487,1.064,1.153.517,1.468Z" transform="translate(-1085.952 -594.703)" fill="#a8c4e5"/><path d="M1160.627,697.7c-.561.323-1.912.067-3.025-.575l-30.686-17.707c-1.1-.634-1.549-1.419-.989-1.743l18.222-10.526c.548-.316,1.919-.063,3.017.571l30.686,17.708c1.113.642,1.545,1.429,1,1.746Z" transform="translate(-1093.453 -599.03)" fill="#a8c4e5"/><path d="M1411.049,843.966a2.892,2.892,0,0,1-2.375-.4l-23.4-13.506c-.854-.493-1.171-1.111-.7-1.381l6.737-3.892a2.936,2.936,0,0,1,2.392.406l23.4,13.506c.844.487,1.148,1.1.687,1.371Z" transform="translate(-1142.282 -628.792)" fill="#a8c4e5"/><path d="M1449.625,866.806a2.891,2.891,0,0,1-2.375-.4l-23.4-13.506c-.854-.493-1.171-1.112-.7-1.381l6.736-3.892a2.936,2.936,0,0,1,2.392.406l23.4,13.506c.844.487,1.148,1.1.687,1.37Z" transform="translate(-1149.564 -633.103)" fill="#a8c4e5"/><path d="M1490.525,889.908a2.9,2.9,0,0,1-2.347-.416l-23.412-13.51c-.84-.485-1.177-1.1-.729-1.36l6.489-3.749a2.938,2.938,0,0,1,2.354.419l23.412,13.511c.844.487,1.166,1.1.721,1.355Z" transform="translate(-1157.287 -637.492)" fill="#a8c4e5"/><path d="M1465.372,858.036a2.9,2.9,0,0,1-2.347-.416l-23.412-13.51c-.84-.485-1.177-1.1-.728-1.36l6.489-3.749a2.94,2.94,0,0,1,2.354.419l23.412,13.511c.843.487,1.165,1.1.72,1.355Z" transform="translate(-1152.539 -631.476)" fill="#a8c4e5"/><path d="M1331.108,796.067a2.972,2.972,0,0,1-2.557-.3l-152.413-87.955c-.832-.479-1.08-1.148-.52-1.471l18.222-10.527a3.007,3.007,0,0,1,2.547.3L1348.8,784.064c.847.489,1.076,1.16.53,1.476Z" transform="translate(-1102.822 -604.434)" fill="#a8c4e5"/><path d="M1319.318,786.226a8.906,8.906,0,0,1-1.291-.672l-121.3-70a7.308,7.308,0,0,1-1.158-.741l1.132-.654a8.952,8.952,0,0,1,1.284.668l121.3,70a7.409,7.409,0,0,1,1.166.745Z" transform="translate(-1106.644 -607.93)" fill="#a8c4e5"/><path d="M1159.351,695.074c-.035.02-.144-.01-.244-.068l-17.9-10.333c-.1-.056-.152-.12-.118-.14l1.132-.654a.371.371,0,0,1,.243.067l17.9,10.333c.1.058.153.122.118.141Z" transform="translate(-1096.358 -602.213)" fill="#a8c4e5"/><path d="M1105.206,661.39a.155.155,0,0,1-.14-.008l-7.6-4.386c-.041-.024-.048-.061-.013-.081l1.132-.654a.157.157,0,0,1,.139.008l7.6,4.387c.042.024.048.061.014.08Z" transform="translate(-1088.119 -596.998)" fill="#a8c4e5"/><path d="M1231.776,704.844a2.958,2.958,0,0,1-2.547-.3l-23.419-13.515c-.831-.479-1.075-1.15-.521-1.471l15.52-8.966a2.993,2.993,0,0,1,2.552.3l23.419,13.515c.849.49,1.073,1.151.517,1.473Z" transform="translate(-1108.423 -601.561)" fill="#a8c4e5"/><path d="M1271.529,727.785a2.963,2.963,0,0,1-2.537-.294l-23.418-13.514c-.84-.484-1.077-1.151-.523-1.472l15.521-8.966a2.982,2.982,0,0,1,2.554.3l23.418,13.514c.832.479,1.062,1.145.505,1.467Z" transform="translate(-1115.929 -605.893)" fill="#a8c4e5"/><path d="M1311.284,750.727a2.952,2.952,0,0,1-2.536-.294l-23.423-13.518c-.836-.483-1.064-1.144-.51-1.464l15.52-8.966a2.955,2.955,0,0,1,2.542.291l23.423,13.518c.836.483,1.062,1.145.505,1.467Z" transform="translate(-1123.435 -610.224)" fill="#a8c4e5"/><path d="M1351.039,773.668a2.947,2.947,0,0,1-2.538-.3l-23.423-13.517c-.847-.489-1.076-1.15-.521-1.471l15.52-8.966a2.966,2.966,0,0,1,2.552.3l23.422,13.517c.842.486,1.064,1.147.508,1.468Z" transform="translate(-1130.937 -614.554)" fill="#a8c4e5"/><path d="M1390.8,796.613a2.983,2.983,0,0,1-2.556-.305L1364.828,782.8c-.836-.483-1.064-1.145-.51-1.464l15.521-8.966a2.954,2.954,0,0,1,2.541.291l23.415,13.512c.847.488,1.081,1.157.525,1.478Z" transform="translate(-1138.443 -618.885)" fill="#a8c4e5"/><path d="M1430.557,819.539a2.966,2.966,0,0,1-2.543-.3L1404.6,805.727c-.844-.487-1.076-1.15-.521-1.471l15.52-8.966a2.97,2.97,0,0,1,2.552.3l23.416,13.513c.839.485,1.069,1.149.513,1.472Z" transform="translate(-1145.949 -623.213)" fill="#a8c4e5"/><path d="M1510.7,865.789a2.96,2.96,0,0,1-2.543-.3l-63.81-36.824c-.843-.487-1.072-1.148-.518-1.468l15.52-8.966a2.96,2.96,0,0,1,2.548.3l63.81,36.823c.843.487,1.069,1.149.513,1.471Z" transform="translate(-1153.453 -627.543)" fill="#a8c4e5"/><path d="M1277.573,700.85a2.9,2.9,0,0,1-2.53-.293l-23.425-13.518c-.842-.486-1.077-1.139-.515-1.464l15.524-8.967a2.95,2.95,0,0,1,2.533.3l23.425,13.518c.847.488,1.062,1.141.513,1.459Z" transform="translate(-1117.07 -600.809)" fill="#a8c4e5"/><path d="M1317.336,723.8a2.936,2.936,0,0,1-2.536-.3l-23.432-13.522c-.833-.48-1.07-1.135-.507-1.459l15.523-8.968a2.946,2.946,0,0,1,2.525.294l23.432,13.522c.835.481,1.068,1.144.518,1.462Z" transform="translate(-1124.576 -605.14)" fill="#a8c4e5"/><path d="M1357.09,746.738a2.949,2.949,0,0,1-2.542-.3l-23.419-13.515c-.83-.479-1.088-1.145-.526-1.47l15.524-8.968a3,3,0,0,1,2.543.305l23.419,13.515c.836.483,1.073,1.147.523,1.465Z" transform="translate(-1132.079 -609.47)" fill="#a8c4e5"/><path d="M1396.84,769.677a2.933,2.933,0,0,1-2.538-.3l-23.417-13.513c-.843-.487-1.082-1.142-.519-1.467l15.524-8.968a2.96,2.96,0,0,1,2.537.3l23.416,13.513c.84.485,1.069,1.146.519,1.464Z" transform="translate(-1139.584 -613.801)" fill="#a8c4e5"/><path d="M1436.609,792.609a2.94,2.94,0,0,1-2.538-.3l-23.43-13.522c-.844-.487-1.076-1.138-.513-1.464l15.524-8.967a2.941,2.941,0,0,1,2.53.3l23.431,13.522c.836.483,1.069,1.145.519,1.463Z" transform="translate(-1147.09 -618.129)" fill="#a8c4e5"/><path d="M1476.353,815.544a2.921,2.921,0,0,1-2.533-.3l-23.413-13.511c-.851-.491-1.089-1.146-.527-1.471L1465.4,791.3a2.967,2.967,0,0,1,2.545.306l23.413,13.511c.84.484,1.065,1.143.516,1.461Z" transform="translate(-1154.594 -622.46)" fill="#a8c4e5"/><path d="M1516.108,838.486a2.931,2.931,0,0,1-2.534-.3l-23.43-13.521c-.837-.483-1.068-1.134-.506-1.459l15.524-8.967a2.934,2.934,0,0,1,2.524.293l23.43,13.521c.836.483,1.066,1.143.517,1.461Z" transform="translate(-1162.099 -626.791)" fill="#a8c4e5"/><path d="M1294.513,680.2a2.944,2.944,0,0,1-2.551-.293l-23.422-13.517c-.833-.48-1.063-1.139-.5-1.466l15.52-8.966a2.949,2.949,0,0,1,2.527.294l23.422,13.516c.845.488,1.072,1.148.522,1.466Z" transform="translate(-1120.267 -596.911)" fill="#a8c4e5"/><path d="M1334.259,703.138a2.944,2.944,0,0,1-2.542-.288l-23.422-13.517c-.842-.485-1.075-1.145-.509-1.473l15.521-8.966a2.959,2.959,0,0,1,2.539.3l23.421,13.517c.833.48,1.064,1.142.514,1.46Z" transform="translate(-1127.77 -601.241)" fill="#a8c4e5"/><path d="M1374.017,726.082a2.945,2.945,0,0,1-2.555-.3l-23.418-13.514c-.836-.483-1.066-1.141-.5-1.468l15.521-8.966a2.948,2.948,0,0,1,2.529.3l23.417,13.514c.85.49,1.077,1.15.526,1.467Z" transform="translate(-1135.275 -605.572)" fill="#a8c4e5"/><path d="M1413.763,749.019a2.922,2.922,0,0,1-2.542-.288L1387.8,735.213c-.844-.487-1.075-1.145-.509-1.473l15.521-8.966a2.96,2.96,0,0,1,2.539.3l23.423,13.518c.845.488,1.064,1.142.513,1.46Z" transform="translate(-1142.778 -609.901)" fill="#a8c4e5"/><path d="M1453.531,771.949a2.936,2.936,0,0,1-2.538-.285l-23.423-13.517c-.847-.489-1.072-1.144-.505-1.471l15.521-8.966a2.943,2.943,0,0,1,2.535.3l23.423,13.518c.829.478,1.059,1.139.508,1.457Z" transform="translate(-1150.286 -614.231)" fill="#a8c4e5"/><path d="M1493.291,794.894a2.95,2.95,0,0,1-2.559-.3l-23.419-13.515c-.83-.479-1.068-1.142-.5-1.469l15.521-8.967a2.967,2.967,0,0,1,2.532.3l23.42,13.515c.85.491,1.08,1.152.529,1.47Z" transform="translate(-1157.79 -618.561)" fill="#a8c4e5"/><path d="M1533.038,817.832a2.942,2.942,0,0,1-2.545-.29l-23.423-13.517c-.844-.487-1.073-1.145-.506-1.472l15.521-8.966a2.95,2.95,0,0,1,2.535.3l23.424,13.518c.836.483,1.066,1.143.515,1.462Z" transform="translate(-1165.294 -622.892)" fill="#a8c4e5"/><path d="M1211.4,632.255a2.951,2.951,0,0,1-2.554-.294l-39.712-22.917c-.845-.488-1.077-1.147-.511-1.474l15.521-8.966a2.962,2.962,0,0,1,2.541.3l39.712,22.917c.845.488,1.074,1.149.524,1.467Z" transform="translate(-1101.499 -586.084)" fill="#a8c4e5"/><path d="M1595.345,823.368a2.953,2.953,0,0,1-2.547-.3l-39.714-22.918c-.829-.479-1.071-1.145-.51-1.468l15.516-8.963a2.96,2.96,0,0,1,2.543.294l39.714,22.919c.844.487,1.076,1.145.514,1.47Z" transform="translate(-1173.98 -622.161)" fill="#a8c4e5"/><path d="M1192.679,651.878a2.92,2.92,0,0,1-2.542-.3l-47.343-27.32c-.845-.488-1.084-1.144-.521-1.468l15.524-8.968a2.964,2.964,0,0,1,2.54.3l47.342,27.321c.853.492,1.073,1.147.524,1.464Z" transform="translate(-1096.526 -588.957)" fill="#a8c4e5"/><path d="M1150.559,657.994a2.962,2.962,0,0,1-2.545-.3l-31.567-18.216c-.845-.488-1.073-1.149-.519-1.47l15.52-8.966a2.965,2.965,0,0,1,2.55.3l31.567,18.217c.843.487,1.071,1.15.514,1.472Z" transform="translate(-1091.554 -591.829)" fill="#a8c4e5"/><path d="M1261.2,630.573a2.949,2.949,0,0,1-2.553-.3l-23.406-13.507c-.844-.487-1.076-1.148-.516-1.472l15.515-8.963a2.951,2.951,0,0,1,2.549.3l23.406,13.507c.854.493,1.082,1.149.519,1.473Z" transform="translate(-1113.978 -587.542)" fill="#a8c4e5"/><path d="M1300.772,653.393a2.96,2.96,0,0,1-2.55-.3L1274.8,639.579c-.838-.484-1.074-1.146-.513-1.47l15.515-8.963a2.955,2.955,0,0,1,2.547.3l23.422,13.517c.844.487,1.08,1.148.518,1.472Z" transform="translate(-1121.447 -591.849)" fill="#a8c4e5"/><path d="M1340.513,676.327a2.922,2.922,0,0,1-2.538-.29l-23.421-13.516c-.838-.484-1.069-1.144-.509-1.468l15.516-8.963a2.942,2.942,0,0,1,2.542.293l23.421,13.517c.848.488,1.068,1.14.505,1.465Z" transform="translate(-1128.952 -596.18)" fill="#a8c4e5"/><path d="M1380.279,699.276a2.959,2.959,0,0,1-2.549-.3l-23.407-13.508c-.849-.49-1.077-1.149-.518-1.472l15.516-8.963a2.944,2.944,0,0,1,2.55.3l23.407,13.508c.842.486,1.078,1.147.516,1.472Z" transform="translate(-1136.458 -600.511)" fill="#a8c4e5"/><path d="M1420.02,722.209a2.915,2.915,0,0,1-2.536-.29l-23.416-13.513c-.849-.49-1.078-1.149-.517-1.472l15.515-8.963a2.948,2.948,0,0,1,2.551.3l23.416,13.513c.849.49,1.066,1.14.5,1.464Z" transform="translate(-1143.961 -604.841)" fill="#a8c4e5"/><path d="M1459.8,745.144a2.953,2.953,0,0,1-2.54-.291l-23.431-13.521c-.836-.483-1.063-1.141-.5-1.464l15.516-8.963a2.932,2.932,0,0,1,2.536.29l23.431,13.522c.833.48,1.069,1.141.507,1.467Z" transform="translate(-1151.468 -609.17)" fill="#a8c4e5"/><path d="M1499.547,768.084a2.953,2.953,0,0,1-2.547-.3l-23.42-13.515c-.847-.488-1.081-1.151-.521-1.475l15.515-8.962a2.955,2.955,0,0,1,2.554.3l23.42,13.515c.844.487,1.076,1.145.513,1.47Z" transform="translate(-1158.97 -613.499)" fill="#a8c4e5"/><path d="M1539.292,791.02a2.927,2.927,0,0,1-2.533-.287l-23.437-13.526c-.833-.481-1.06-1.139-.5-1.463l15.515-8.962a2.929,2.929,0,0,1,2.533.287l23.438,13.526c.836.483,1.062,1.137.5,1.463Z" transform="translate(-1166.476 -617.831)" fill="#a8c4e5"/><path d="M1561.173,816.824a3.582,3.582,0,0,0-1.372-.449,1.9,1.9,0,0,0-1.153.157l-15.521,8.966a.532.532,0,0,0-.282.672,1.721,1.721,0,0,0,.777.793l6.114,3.528-20.353,11.758a.525.525,0,0,0-.265.675,1.679,1.679,0,0,0,.785.792l15.778,9.106a3.678,3.678,0,0,0,1.379.457,1.925,1.925,0,0,0,1.169-.153l36.9-21.314a.514.514,0,0,0,.259-.672,1.654,1.654,0,0,0-.789-.8Z" transform="translate(-1169.603 -627.222)" fill="#a8c4e5"/><path d="M1149.263,652.842c-.035.02-.144-.011-.244-.068l-17.9-10.333c-.1-.057-.152-.121-.118-.14l1.133-.655a.366.366,0,0,1,.242.068l17.9,10.333c.1.058.152.121.118.141Z" transform="translate(-1094.454 -594.241)" fill="#a8c4e5"/></g></g><rect width="93.74" height="18.538" rx="9.269" transform="matrix(0.857, -0.516, 0.516, 0.857, 1197.445, 641.713)" fill="#a8c4e5" opacity="0.85"/><rect width="93.74" height="18.538" rx="9.269" transform="translate(1297.063 696.666) rotate(-31.051)" fill="#a8c4e5" opacity="0.85"/><path d="M1325.737,625.6l.953-.434c3.38-1.539,4.9-7.693,3.385-13.747l-23.221-93.075c-1.51-6.054-5.475-9.714-8.855-8.175l-.953.434c-3.38,1.538-4.9,7.693-3.385,13.747l23.221,93.075C1318.392,623.476,1322.356,627.137,1325.737,625.6Z" transform="translate(-59.375 -10.616)" fill="#343456"/><path d="M1511.925,715.024l.954-.434c3.38-1.539,4.9-7.693,3.385-13.747l-23.222-93.075c-1.51-6.054-5.474-9.714-8.854-8.176l-.953.435c-3.38,1.538-4.9,7.693-3.385,13.747l23.221,93.075C1504.581,712.9,1508.545,716.562,1511.925,715.024Z" transform="translate(-133.343 -46.142)" fill="#343456"/><path d="M1486.235,682.452h0a4.491,4.491,0,0,1-4.478-4.478h0a4.491,4.491,0,0,1,4.478-4.478h0a4.491,4.491,0,0,1,4.478,4.478h0A4.491,4.491,0,0,1,1486.235,682.452Z" transform="translate(-97.353 -90.207)" fill="#424268"/><path d="M1368.889,701.624l-96.06-55.357c-1.99-1.147-1.928-4.715.137-7.93h0c2.066-3.214,5.383-4.906,7.373-3.76l96.06,55.357c1.99,1.147,1.929,4.716-.137,7.93h0C1374.2,701.079,1370.879,702.771,1368.889,701.624Z" transform="translate(-50.755 -60.038)" fill="#343456"/><path d="M1241.658,692.662l-.953-.435c-3.38-1.538-4.9-7.693-3.385-13.746l23.221-93.075c1.51-6.054,5.475-9.714,8.855-8.176l.953.435c3.38,1.538,4.9,7.693,3.385,13.746l-23.222,93.075C1249,690.539,1245.038,694.2,1241.658,692.662Z" transform="translate(-36.992 -37.258)" fill="#45446c"/><path d="M1407.551,781.413l-.954-.434c-3.38-1.539-4.9-7.693-3.385-13.747l23.222-93.075c1.51-6.054,5.474-9.714,8.854-8.176l.954.435c3.379,1.538,4.895,7.693,3.384,13.747L1416.4,773.237C1414.894,779.291,1410.93,782.951,1407.551,781.413Z" transform="translate(-102.897 -72.516)" fill="#45446c"/><g transform="translate(1191.275 465.356)"><path d="M1423.358,620.813,1238.48,514.074c-4.135-2.387-6.541-8.245-5.376-13.085l10.083-41.874c1.166-4.839,5.462-6.828,9.6-4.441l184.878,106.74c4.134,2.387,6.541,8.245,5.376,13.085l-10.084,41.873C1431.789,621.212,1427.492,623.2,1423.358,620.813Z" transform="translate(-1226.708 -453.664)" fill="#dd912c"/><path d="M1413.234,626.25,1228.355,519.51c-4.134-2.387-6.541-8.245-5.376-13.085l10.084-41.874c1.165-4.839,5.462-6.828,9.6-4.441l184.878,106.74c4.135,2.387,6.542,8.245,5.376,13.085l-10.084,41.874C1421.664,626.648,1417.368,628.637,1413.234,626.25Z" transform="translate(-1222.686 -455.824)" fill="#f7a537"/><path d="M1392.593,607.4l36.285,20.949-18.494-78.335L1374.1,529.062Z" transform="translate(-1282.838 -483.618)" fill="#424268"/><path d="M1281.569,543.3l36.285,20.949-18.494-78.335-36.285-20.949Z" transform="translate(-1238.731 -458.153)" fill="#424268"/><path d="M1226.984,510.026l-4,16.63c-1.165,4.839,1.242,10.7,5.376,13.085l6.535,3.773Z" transform="translate(-1222.686 -476.055)" fill="#424268"/><path d="M1527.088,675.068l4.4-18.266-10.079-42.691-36.285-20.949,18.494,78.335,13.875,8.01C1521.627,681.9,1525.923,679.908,1527.088,675.068Z" transform="translate(-1326.945 -509.083)" fill="#424268"/></g><g transform="translate(1211.905 393.924)"><path d="M1457.586,502.3,1272.708,395.56c-4.135-2.387-6.541-8.245-5.376-13.085l10.084-41.873c1.165-4.84,5.461-6.828,9.6-4.441L1471.89,442.9c4.134,2.387,6.541,8.245,5.376,13.085l-10.084,41.874C1466.017,502.7,1461.72,504.686,1457.586,502.3Z" transform="translate(-1260.936 -335.15)" fill="#dd912c"/><path d="M1447.462,507.735,1262.583,401c-4.134-2.387-6.541-8.245-5.376-13.085l10.084-41.874c1.166-4.839,5.462-6.828,9.6-4.441l184.878,106.74c4.134,2.387,6.541,8.245,5.376,13.085l-10.084,41.873C1455.892,508.134,1451.6,510.123,1447.462,507.735Z" transform="translate(-1256.914 -337.31)" fill="#f7a537"/><path d="M1426.821,488.884l36.284,20.949L1444.612,431.5l-36.285-20.949Z" transform="translate(-1317.066 -365.103)" fill="#424268"/><path d="M1315.8,424.784l36.285,20.949L1333.588,367.4,1297.3,346.448Z" transform="translate(-1272.959 -339.638)" fill="#424268"/><path d="M1261.213,391.512l-4.005,16.63c-1.165,4.839,1.242,10.7,5.376,13.085l6.535,3.773Z" transform="translate(-1256.914 -357.541)" fill="#424268"/><path d="M1561.317,556.553l4.4-18.265L1555.636,495.6l-36.284-20.949,18.494,78.336,13.875,8.01C1555.855,563.382,1560.151,561.393,1561.317,556.553Z" transform="translate(-1361.173 -390.569)" fill="#424268"/></g><path d="M1277.13,585.849l17.087,9.865-3.45,13.091-17.5-9.019Z" transform="translate(-57.996 -73.661)" fill="#343456"/><path d="M1441.471,680.846l17.087,9.865-3.45,13.091-17.364-9.5Z" transform="translate(-89.044 -91.594)" fill="#343456"/><g transform="translate(1221.004 419.096)"><g transform="translate(0)"><path d="M1402.059,565.352l-126.083-72.869c-3.173-1.834-4.774-7.487-3.558-12.561l23.124-96.534c1.216-5.076,4.806-7.728,7.979-5.894L1429.6,450.363c3.173,1.833,4.774,7.487,3.558,12.561l-23.124,96.534C1408.822,564.533,1405.231,567.185,1402.059,565.352Z" transform="translate(-1272.011 -376.913)" fill="#ffd22d"/><g transform="translate(6.953 11.95)"><path d="M1403.88,564.661a4.75,4.75,0,0,1-2.389-.659L1287.6,498.181c-3.25-1.879-4.857-7.274-3.658-12.282l19.788-82.606c.714-2.978,2.362-5.281,4.41-6.161a4.651,4.651,0,0,1,4.256.267l113.889,65.821c3.251,1.879,4.858,7.274,3.658,12.282l-19.789,82.607c-.713,2.978-2.361,5.28-4.409,6.16A4.707,4.707,0,0,1,1403.88,564.661Zm-93.869-165.695a2.491,2.491,0,0,0-.99.213c-1.4.6-2.571,2.335-3.121,4.631l-19.788,82.606c-.95,3.965.243,8.468,2.605,9.833l113.889,65.821a2.407,2.407,0,0,0,2.26.149c1.4-.6,2.571-2.334,3.121-4.631l19.788-82.606c.949-3.965-.244-8.468-2.606-9.833l-113.89-65.821A2.517,2.517,0,0,0,1310.011,398.967Z" transform="translate(-1283.547 -396.739)" fill="#424268"/></g><g transform="matrix(0.985, 0.174, -0.174, 0.985, 55.977, 52.729)"><path d="M31.364,7.478,23.73,5.437a4.2,4.2,0,0,0-2.744.371,4.188,4.188,0,0,1-2.995.264l-.944-.252a6.52,6.52,0,0,1-2.958-1.856,6.842,6.842,0,0,0-2.707-1.828L3.747.1C2.068-.354.079.7,0,5.143c-.132,7.721,4.028,9.67,5.823,10.15l2.755.737c3.663.979,6.087-1.8,6.95-5.637.241-1.069.979-2.456,1.949-2.2s1.654,2.027,1.856,3.214c.724,4.262,3.031,8.3,6.694,9.284l2.755.737c1.8.48,5.983.763,6.116-6.959C34.977,10.029,33.043,7.927,31.364,7.478Zm-16.755,2.3c-.064,3.721-2.759,6.043-6.01,5.174l-2.755-.737C3.967,13.713.836,11.9.947,5.4,1.01,1.753,2.423.825,3.728,1.174l7.634,2.041a4.924,4.924,0,0,1,3.278,4.725ZM28.8,20.353l-2.755-.737c-3.25-.869-5.842-4.6-5.778-8.326L20.3,9.452c.036-2.112,1.564-3.43,3.409-2.937l7.634,2.041c1.3.349,2.674,2.021,2.611,5.664C33.845,20.725,30.681,20.855,28.8,20.353Z" transform="translate(12.443 16.357)" fill="#45446c"/><path d="M2.886.088C1.323-.33.031.782,0,2.571a4.161,4.161,0,0,0,2.774,4c1.563.418,2.854-.694,2.885-2.483A4.161,4.161,0,0,0,2.886.088Zm.407,3.905a1.387,1.387,0,0,1-.925-1.332.768.768,0,0,1,.962-.828,1.387,1.387,0,0,1,.925,1.332A.768.768,0,0,1,3.292,3.993Z" transform="translate(19.04 21.151)" fill="#45446c"/><path d="M2.886.088C1.323-.33.031.782,0,2.571a4.161,4.161,0,0,0,2.774,4c1.563.418,2.854-.694,2.885-2.483A4.161,4.161,0,0,0,2.886.088Zm.407,3.905a1.387,1.387,0,0,1-.925-1.332.768.768,0,0,1,.962-.828,1.387,1.387,0,0,1,.925,1.332A.768.768,0,0,1,3.292,3.993Z" transform="translate(36.017 25.69)" fill="#45446c"/><path d="M9.792,4.389a13.1,13.1,0,0,0,5.034-.425L0,0A20.491,20.491,0,0,0,4.7,2.98S6.312,6.36,7.219,6.6,9.792,4.389,9.792,4.389Z" transform="translate(21.786 64.814)" fill="#45446c"/><path d="M31.364,7.478,23.73,5.437a4.2,4.2,0,0,0-2.744.371,4.188,4.188,0,0,1-2.995.264l-.944-.252a6.52,6.52,0,0,1-2.958-1.856,6.842,6.842,0,0,0-2.707-1.828L3.747.1C2.068-.354.079.7,0,5.143c-.132,7.721,4.028,9.67,5.823,10.15l2.755.737c3.663.979,6.087-1.8,6.95-5.637.241-1.069.979-2.456,1.949-2.2s1.654,2.027,1.856,3.214c.724,4.262,3.031,8.3,6.694,9.284l2.755.737c1.8.48,5.983.763,6.116-6.959C34.977,10.029,33.043,7.927,31.364,7.478Zm-16.755,2.3c-.064,3.721-2.759,6.043-6.01,5.174l-2.755-.737C3.967,13.713.836,11.9.947,5.4,1.01,1.753,2.423.825,3.728,1.174l7.634,2.041a4.924,4.924,0,0,1,3.278,4.725ZM28.8,20.353l-2.755-.737c-3.25-.869-5.842-4.6-5.778-8.326L20.3,9.452c.036-2.112,1.564-3.43,3.409-2.937l7.634,2.041c1.3.349,2.674,2.021,2.611,5.664C33.845,20.725,30.681,20.855,28.8,20.353Z" transform="translate(12.443 16.357)" fill="#45446c"/><path d="M33.758,16.336,0,7.311.125,0,33.883,9.025Z" transform="translate(12.638 36.433)" fill="#45446c"/><path d="M32.571,8.708A15.185,15.185,0,0,1,29.1,15.126L3.216,8.2A26.6,26.6,0,0,1,0,0Z" transform="translate(13.123 50.169)" fill="#45446c"/><path d="M8.862,11.659,7.9,1.783A1.942,1.942,0,0,0,6.386.027H6.375A1.175,1.175,0,0,0,6.128,0L1.775.035a1.058,1.058,0,0,0-.149.012A1.6,1.6,0,0,0,0,1.8,2.851,2.851,0,0,0,1.9,4.542a1.519,1.519,0,0,0,1.935-1.3l1.516-.012.79,8.122a1.942,1.942,0,0,0,1.516,1.755h0C8.406,13.191,8.948,12.539,8.862,11.659Z" transform="translate(16.678 0)" fill="#45446c"/><path d="M7.582,2.658a1.628,1.628,0,0,0-.147-.091L3.123.215a1.461,1.461,0,0,0-.245-.1L2.866.1h0A1.091,1.091,0,0,0,1.3,1.037L.016,10.312A2.059,2.059,0,0,0,1.16,12.387h0a1.091,1.091,0,0,0,1.562-.933l1.06-7.628,1.5.819A2.817,2.817,0,0,0,7.156,6.965a1.58,1.58,0,0,0,1.977-1.7A2.933,2.933,0,0,0,7.582,2.658Z" transform="translate(33.776 3.553)" fill="#45446c"/><g transform="translate(0 6.961)"><path d="M52.158,31.647l-4.5-1.2.034-2a14.334,14.334,0,0,0,.649-4.31,12.513,12.513,0,0,0-.508-3.915l.028-1.63c.108-6.282-4.266-12.582-9.754-14.049l-.075-.02-1.008-.27-.154,1.1,1.217.325c4.949,1.323,8.874,6.982,8.777,12.643l-.223,12.991,5.5,1.47c3.451.923,6.214,4.9,6.146,8.853a7.482,7.482,0,0,1-.235,1.775,5.5,5.5,0,0,1-1.694,2.806,4.775,4.775,0,0,1-4.463.926l-5.5-1.47-.022,1.305a19.924,19.924,0,0,1-.68,4.932,15.2,15.2,0,0,1-3.466,6.42,12.337,12.337,0,0,1-5.617,3.48,13.7,13.7,0,0,1-7.443-.02,19.342,19.342,0,0,1-7.381-3.943,25.429,25.429,0,0,1-5.447-6.438,26.62,26.62,0,0,1-3.216-8.207,23.672,23.672,0,0,1-.505-5.249l.022-1.305L7.148,35.185c-2.9-.776-5.314-3.711-5.973-6.974A8.848,8.848,0,0,1,1,26.325,6.029,6.029,0,0,1,2.926,21.75a4.763,4.763,0,0,1,4.468-.924l5.492,1.468L13.109,9.3c.1-5.661,4.184-9.178,9.128-7.856l.306.082L22.429.353l-1-.268,0,.041c-5.112-.88-9.214,2.948-9.317,8.911l-.028,1.636a9.947,9.947,0,0,0-.637,3.6,17.22,17.22,0,0,0,.5,4.605l-.034,2.007-4.5-1.2a5.5,5.5,0,0,0-5.175,1.067A6.975,6.975,0,0,0,0,26.059a10.069,10.069,0,0,0,.208,2.186c.784,3.88,3.628,7.2,6.92,8.08l4.5,1.2,0,.165a24.918,24.918,0,0,0,.535,5.555,28.029,28.029,0,0,0,3.407,8.7,26.725,26.725,0,0,0,5.716,6.774c.015.015.035.026.049.042l.114.088c.316.262.632.507.953.747.079.061.158.117.237.172l.069.047c.287.208.578.407.88.6l.257.166a19.938,19.938,0,0,0,2.037,1.129c.851,1.705,2.014,3.591,3.11,3.884,1.076.287,2.277-.932,3.163-2.155.29.026.58.04.875.045l.1,0a11.893,11.893,0,0,0,1.251-.044l.241-.027c.321-.029.642-.075.988-.131.1-.019.2-.038.306-.056.326-.067.648-.142.994-.238a.979.979,0,0,0,.126-.029l.06-.018a13.092,13.092,0,0,0,5.885-3.672,15.913,15.913,0,0,0,3.673-6.795,21.056,21.056,0,0,0,.72-5.225l0-.165,4.5,1.2a5.513,5.513,0,0,0,5.171-1.069A6.361,6.361,0,0,0,59,43.963a8.629,8.629,0,0,0,.275-2.057C59.359,37.323,56.161,32.717,52.158,31.647Z" transform="translate(0 0)" fill="#45446c"/><path d="M8.922,3.53l.153-1.1L8.068,2.157,1.007.269,0,0,.114,1.176Z" transform="translate(25.188 1.09)" fill="#45446c"/></g></g></g><path d="M1318.236,392.646h0a3.337,3.337,0,0,1-3.326-3.327h0a3.337,3.337,0,0,1,3.326-3.327h0a3.337,3.337,0,0,1,3.327,3.327h0A3.337,3.337,0,0,1,1318.236,392.646Z" transform="translate(-1289.053 -380.52)" fill="#424268"/><path d="M1277.7,559.144h0a3.336,3.336,0,0,1-3.327-3.326h0a3.337,3.337,0,0,1,3.327-3.327h0a3.337,3.337,0,0,1,3.327,3.327h0A3.336,3.336,0,0,1,1277.7,559.144Z" transform="translate(-1272.948 -446.665)" fill="#424268"/><path d="M1526.912,511.161h0a3.337,3.337,0,0,1-3.327-3.327h0a3.336,3.336,0,0,1,3.327-3.326h0a3.336,3.336,0,0,1,3.327,3.326h0A3.337,3.337,0,0,1,1526.912,511.161Z" transform="translate(-1371.954 -427.603)" fill="#424268"/></g></g><path d="M117.97,183.631l-4.351-1.052a3.2,3.2,0,0,1-2.2-2.345,25.936,25.936,0,0,0-1.082-3.316,2.606,2.606,0,0,1,.469-2.949l3.129-2.717a2.855,2.855,0,0,0,.052-3.735l-1.843-2.556c-.9-1.253-2.395-1.613-3.328-.8l-3.127,2.714a2.074,2.074,0,0,1-2.726-.175,21.716,21.716,0,0,0-2.693-1.921,3.414,3.414,0,0,1-1.575-2.885l.069-4.887a3.324,3.324,0,0,0-2.317-3.209l-2.648-.64a1.936,1.936,0,0,0-2.388,2.073l-.069,4.886a1.977,1.977,0,0,1-1.646,2.106,13.445,13.445,0,0,0-2.726.611A2.5,2.5,0,0,1,84.26,161.7l-3.032-4.2c-.9-1.253-2.395-1.613-3.326-.8L76,158.339a2.855,2.855,0,0,0-.052,3.735l3.032,4.2a3.089,3.089,0,0,1,.384,3.155,16.6,16.6,0,0,0-1.168,2.774,1.823,1.823,0,0,1-2.248,1.27L71.6,172.425a1.941,1.941,0,0,0-2.39,2.075l-.04,2.973a3.327,3.327,0,0,0,2.314,3.212l4.351,1.052a3.208,3.208,0,0,1,2.2,2.345,25.937,25.937,0,0,0,1.082,3.316,2.606,2.606,0,0,1-.469,2.949l-3.129,2.717a2.855,2.855,0,0,0-.052,3.735l1.843,2.556c.9,1.253,2.395,1.613,3.326.8l3.129-2.714a2.074,2.074,0,0,1,2.726.175,21.892,21.892,0,0,0,2.693,1.921,3.425,3.425,0,0,1,1.575,2.885l-.069,4.886A3.325,3.325,0,0,0,93,210.52l2.648.639a1.938,1.938,0,0,0,2.39-2.073l.069-4.886a1.974,1.974,0,0,1,1.644-2.106,13.472,13.472,0,0,0,2.729-.611,2.5,2.5,0,0,1,2.712,1.137l3.032,4.2c.9,1.253,2.392,1.613,3.326.8l1.9-1.651a2.855,2.855,0,0,0,.052-3.735l-3.032-4.2a3.084,3.084,0,0,1-.384-3.155,16.515,16.515,0,0,0,1.168-2.774,1.823,1.823,0,0,1,2.248-1.27l4.351,1.052a1.939,1.939,0,0,0,2.388-2.075l.043-2.973A3.328,3.328,0,0,0,117.97,183.631Zm-14.406,2.655c-.725,3.809-3.662,6.36-7.208,6.258-6.386-.182-11.777-7.658-10.469-14.515.725-3.809,3.662-6.36,7.208-6.258C99.481,171.954,104.872,179.429,103.564,186.286Z" transform="translate(1617.065 522.112)" fill="#f1d10f"/><path d="M106.9,176.707l-3.365-.813a2.478,2.478,0,0,1-1.7-1.813,20.055,20.055,0,0,0-.837-2.564,2.015,2.015,0,0,1,.363-2.28l2.419-2.1a2.207,2.207,0,0,0,.04-2.888l-1.425-1.976a1.783,1.783,0,0,0-2.573-.621l-2.418,2.1a1.6,1.6,0,0,1-2.108-.136,16.791,16.791,0,0,0-2.082-1.485A2.64,2.64,0,0,1,92,159.9l.053-3.779a2.57,2.57,0,0,0-1.791-2.482l-2.048-.495a1.5,1.5,0,0,0-1.846,1.6l-.053,3.778a1.529,1.529,0,0,1-1.273,1.628,10.4,10.4,0,0,0-2.108.473,1.935,1.935,0,0,1-2.1-.879l-2.344-3.251a1.781,1.781,0,0,0-2.571-.621l-1.471,1.277a2.207,2.207,0,0,0-.04,2.888l2.344,3.251a2.389,2.389,0,0,1,.3,2.44,12.837,12.837,0,0,0-.9,2.145,1.409,1.409,0,0,1-1.738.982l-3.365-.813a1.5,1.5,0,0,0-1.848,1.6l-.031,2.3a2.573,2.573,0,0,0,1.789,2.484l3.365.813a2.481,2.481,0,0,1,1.7,1.813,20.055,20.055,0,0,0,.837,2.564,2.015,2.015,0,0,1-.363,2.28L74.076,184a2.207,2.207,0,0,0-.04,2.888l1.425,1.976a1.781,1.781,0,0,0,2.572.621l2.419-2.1a1.6,1.6,0,0,1,2.108.136,16.927,16.927,0,0,0,2.082,1.485,2.648,2.648,0,0,1,1.218,2.231l-.053,3.778A2.571,2.571,0,0,0,87.6,197.5l2.048.494a1.5,1.5,0,0,0,1.848-1.6l.053-3.778a1.526,1.526,0,0,1,1.271-1.628,10.418,10.418,0,0,0,2.11-.473,1.935,1.935,0,0,1,2.1.879l2.344,3.251a1.781,1.781,0,0,0,2.572.621l1.471-1.277a2.207,2.207,0,0,0,.04-2.888l-2.344-3.251a2.385,2.385,0,0,1-.3-2.44,12.77,12.77,0,0,0,.9-2.145,1.409,1.409,0,0,1,1.738-.982l3.365.813a1.5,1.5,0,0,0,1.846-1.6l.033-2.3A2.573,2.573,0,0,0,106.9,176.707Zm-11.14,2.053a5.582,5.582,0,0,1-5.573,4.839c-4.938-.141-9.106-5.921-8.1-11.224a5.582,5.582,0,0,1,5.573-4.839C92.607,167.678,96.776,173.458,95.765,178.761Z" transform="translate(1091.86 477.702)" fill="#f1d10f"/><g transform="translate(1135.831 668.356)"><path d="M292.814,293.505s-7.883-4.121-11.11-2.5c0,0,5.21,2.342,8.4,3.331S292.814,293.505,292.814,293.505Z" fill="#cfe6f3"/><path d="M357.349,279.924c-4.581-1.9-13.4-.9-18.976.033-1.48-.4-3-.763-4.436-1.031-6.016-1.122-20.932,1.205-29.864,6.747a38.988,38.988,0,0,0-8.911,7.592c-2.486,1.332-7,5.645-11.064,7.56a59.649,59.649,0,0,0-6.055,3.163,10.4,10.4,0,0,0,6.323-.939c1.529-.734,4.682-2.622,7.68-4.47.884.215,2.525.678,2.843,1.21.44.734-1.084,3.487,1.8,4.953,1.528.776,4.734,1.214,7.416,1.454-.559.86-1.112,1.735-1.614,2.578a37.44,37.44,0,0,1-4.921,6.178A8.228,8.228,0,0,0,303.6,312.2c1.282-1.5,3.161-3.717,4.877-5.737,0,0,5.312-.922,7.641.088s5.36,2.219,8.057,3.473c.765-.137-3.2-4.781-3.816-6.3a13.1,13.1,0,0,1-.8-2.9s3.277-1.584,5.8-2.678a17.528,17.528,0,0,1,3.5.474c2.156.55,4.627,2.293,6.648,2.925a30.615,30.615,0,0,0,4.186.939s-5.252-5.317-7.495-6.628a8.607,8.607,0,0,0-.9-.456c1.883-1,4.062-2.233,6.032-3.447,1.047-.276,12.373-3.277,16.673-5.054C360.124,284.371,362.446,282.038,357.349,279.924Z" fill="#cfe6f3"/><path d="M301.982,278.926a38.478,38.478,0,0,1,2-7.354c1.148-2.429,3.6-3.3,3.824,1.209S301.982,278.926,301.982,278.926Z" fill="#722b0c"/><path d="M287.362,288.333a5.341,5.341,0,0,1-2.4,1.051c-1.347.182-2.76.67-3.259,1.625.883-.078,1.823.016,2.946-.078s1.457-.61,2.184-1.076A1.578,1.578,0,0,0,287.362,288.333Z" fill="#722b0c"/><path d="M290.373,283.084c-1.619.995-4.931,4.835-4.931,4.835a4.646,4.646,0,0,0,1.918,1.966c.585,1.01,1.264-.933,1.264-.933s3.126-2.82,3.771-4.058A1.4,1.4,0,0,0,290.373,283.084Z" fill="#722b0c"/><path d="M297.942,279.227s-1.258-4.013-3.053-3.442-2.89,4.862-3.337,7,1.217,1.276,2.218,1.4S297.942,279.227,297.942,279.227Z" fill="#722b0c"/><path d="M288.563,293.391a44.27,44.27,0,0,0-5.976,2.911,3.028,3.028,0,0,0-1.454,2.545,33.3,33.3,0,0,0,3.517-1.148c1.6-.648,3.93-2.07,4.26-2.669S288.563,293.391,288.563,293.391Z" fill="#722b0c"/><path d="M322.815,272.486c-.183-.025-.353-.063-.54-.085a26.213,26.213,0,0,0-5.116-.1,9.988,9.988,0,0,1,5.322,5.73c1.384,3.985-.131,9.083-.97,11.371a16.406,16.406,0,0,0,2.516.388,24.045,24.045,0,0,0,3.263-7.95C328.464,276.538,325.05,273.723,322.815,272.486Z" fill="#863f1b"/><path d="M318.918,280.509a8.01,8.01,0,0,0-6.267-7.437,21.811,21.811,0,0,0-6.344,2.679l-3.9,17.6a102.328,102.328,0,0,0,15.246-2.778A23.413,23.413,0,0,0,318.918,280.509Z" fill="#863f1b"/><path d="M334.247,278.48a14.716,14.716,0,0,0-5.551-4.323,9.757,9.757,0,0,1,2.727,6.373c.12,3.4-1.772,6.927-3.284,9.186a21.776,21.776,0,0,0,3.943-.809,22.947,22.947,0,0,0,1.962-4.309A10.548,10.548,0,0,0,334.247,278.48Z" fill="#863f1b"/><path d="M322.481,278.036a9.988,9.988,0,0,0-5.322-5.73,25.877,25.877,0,0,0-4.508.766,8.01,8.01,0,0,1,6.267,7.437,23.413,23.413,0,0,1-1.261,10.062,20.829,20.829,0,0,0,3.373-1.278c.156.043.321.076.481.114C322.35,287.119,323.865,282.021,322.481,278.036Z" fill="#e77a03"/><path d="M328.7,274.157a20.733,20.733,0,0,0-5.881-1.671c2.235,1.237,5.649,4.052,4.475,9.359a24.045,24.045,0,0,1-3.263,7.95,22,22,0,0,0,4.112-.079c1.512-2.259,3.4-5.787,3.284-9.186A9.757,9.757,0,0,0,328.7,274.157Z" fill="#e77a03"/><path d="M334.247,278.48a10.548,10.548,0,0,1-.2,6.118,22.947,22.947,0,0,1-1.962,4.309,13.533,13.533,0,0,0,4.528-2.257A10.984,10.984,0,0,0,334.247,278.48Z" fill="#e77a03"/><path d="M294.889,281.177s1.277-9.553,8.982-15.163,14.981-9.319,21.572-8.156c5.428.958-1.363,10.606-4.854,13.984s-10.775,7.683-10.775,7.683Z" fill="#e77a03" opacity="0.5"/><path d="M309.814,288.875s10.917-1.322,19.987-6.29c7.073-3.876,11.341-6.513,14.3-10.475,1.987-2.662.65-5.766-7.942-5.171s-12.5,0-23.348,4.9a83.883,83.883,0,0,0-10.4,5.574Z" fill="#e77a03" opacity="0.5"/><path d="M328.5,269.411a27.654,27.654,0,0,1-8.147,9.212c-5.177,3.924-7.867,4.915-7.867,4.915l-.28-1.141a81.7,81.7,0,0,0,7.437-4.518C323.749,275.089,328.5,269.411,328.5,269.411Z" fill="#722b0c"/><path d="M311.7,286.9a147.824,147.824,0,0,0,14.139-5.423c4.7-2.317,11.731-5.106,14.811-7.387s3.3-4.465,3.3-4.465a22.34,22.34,0,0,1-5.017,4.465,97.459,97.459,0,0,1-15.7,7.532,105.733,105.733,0,0,1-10.525,3.076Z" fill="#722b0c"/><path d="M300.991,277.87a20.379,20.379,0,0,1,6.379-8.459c4.565-3.411,11.548-5.492,11.548-5.492s-9.4,4.15-11.69,6.149a20.125,20.125,0,0,0-5.163,7.45Z" fill="#722b0c"/><path d="M296.694,279.924a22.407,22.407,0,0,1,4.23-9.156,46.73,46.73,0,0,1,17.994-11.549s-6.11,2.4-14.637,9a26.7,26.7,0,0,0-5.678,7.563,13.874,13.874,0,0,0-.661,3.448Z" fill="#722b0c"/><path d="M316.115,280.659a3.208,3.208,0,0,0-2.459-.735,22.865,22.865,0,0,1,.957-2.406c-1.107-.065-1.486-.065-2.685-.082a2.939,2.939,0,0,0,.665-2.39c-1.412,1.429-3.534.842-4.941.733a4.866,4.866,0,0,0-.287-2.155A16.439,16.439,0,0,1,305.7,275.8a9.282,9.282,0,0,1-.34-1.705,6.067,6.067,0,0,1-3.377,2.328,5.583,5.583,0,0,0-1.463-2.328,4.435,4.435,0,0,1-2.066,3.6c-6.482,3.8-7.768,11.055-7.768,11.055l4.972,6.754s9.363.961,14.851-3.871a9.6,9.6,0,0,0,2.927-4.295c.618-2.044,3.075-3.1,3.075-3.1a2.974,2.974,0,0,0-2.291-.507A4.237,4.237,0,0,1,316.115,280.659Z" fill="#e77a03"/><path d="M340.2,268.216a39.567,39.567,0,0,1-2.685,3.693c-1.41,1.678-4.5,5.605-4.5,5.605s1.264.071,1.276-.368,2.753-3.693,3.894-5.3A23.3,23.3,0,0,0,340.2,268.216Z" fill="#722b0c"/><path d="M322.275,276.475c.2-.135,5.443-1.159,8.259-2.82a37.7,37.7,0,0,0,6.076-4.835,69.376,69.376,0,0,1-7.654,4.767,16.62,16.62,0,0,1-5.338,1.545Z" fill="#722b0c"/><path d="M310.508,263.449a52.378,52.378,0,0,0,5.993-1.142c1.611-.537,5.774-2.618,5.774-2.618s-3.138,2.618-5.563,3.289a62.565,62.565,0,0,1-7.487,1.176Z" fill="#722b0c"/><path d="M309.955,268.216s4.53.356,6.561-.3a28.431,28.431,0,0,0,5.759-3.125,47.686,47.686,0,0,1-6.169,2.551,20.468,20.468,0,0,1-5.244.463Z" fill="#722b0c"/><path d="M305.564,293.47c-1.044-.641-4.063,1.29-4.685,5.21-.384,2.421,1.174,2.41,2.519-.139S307.087,294.4,305.564,293.47Z" fill="#722b0c"/><path d="M294.309,286.123a7.343,7.343,0,0,1,2.385-4.566c2.2-1.946,3.175-2.547,3.474-3.294a5.579,5.579,0,0,0,.351-1.5,6.652,6.652,0,0,1,.472,2.1,1.866,1.866,0,0,1-.472,1.061,17.2,17.2,0,0,1,2.545-1.5,16.579,16.579,0,0,1,2.39-.556l-1.544,1.592a13.827,13.827,0,0,1,2.021-.449,9.626,9.626,0,0,1,3.294.3l-3.622,2.171s1.45-.058,2.2-.038a12.124,12.124,0,0,0,2.728-.268,13.462,13.462,0,0,1-2.17,1.915,8.334,8.334,0,0,1-2.1.628,10.188,10.188,0,0,0,1.834.507,5.344,5.344,0,0,0,2.582-.507,10.611,10.611,0,0,1-3.319,3.863l2.005-.255a6.363,6.363,0,0,1-4.8,4.141,28.534,28.534,0,0,1-6.045.492Z" fill="#ffa648" opacity="0.8"/><path d="M294.772,284.32c3.167.925,4.861.532,5.747,4.021s-.132,9.2-3.825,11.451-6.729,1.941-8.2,0C285.3,295.572,289.476,282.773,294.772,284.32Z" fill="#863f1b"/><path d="M298.065,288.341c-1.712.194-1.265,3.025-1.752,5.267a28.145,28.145,0,0,1-1.684,4.841,5.963,5.963,0,0,0,4.3-3.879C300.319,291.1,299.63,288.164,298.065,288.341Z" fill="#722b0c"/><path d="M290.105,286.679s-2.266-.563-2.89,3.206a16.628,16.628,0,0,0,.171,5.972S288.958,287.995,290.105,286.679Z" fill="#722b0c"/><path d="M288.211,299.361s-.018,2.488.655,3.42a2.093,2.093,0,0,0,.952.792c.067-.366.076-.766.152-1.077a1.816,1.816,0,0,1,.625-.951,1.6,1.6,0,0,1,.037,1.214c-.059.2-.263.813-.3.971.914,0,2.37-.326,3.441-2.631A6.142,6.142,0,0,1,288.211,299.361Z" fill="#722b0c"/><path d="M301.958,299.385c-1.9-.254-2.159,1.55-2.4,4.323a19.55,19.55,0,0,0,.22,4.248c.185,1.257.4,2.168.4,2.168a5.142,5.142,0,0,0,2.22-4A29.207,29.207,0,0,0,301.958,299.385Z" fill="#722b0c"/><path d="M281.9,297.425s-1.187,1.338-1.854,2.271-1.926,2.131-2.029,3.13a4.593,4.593,0,0,0,0,1.4,9.723,9.723,0,0,1,2.029-2.2c1-.666,1.445-1.265,1.343-2.265A5.618,5.618,0,0,1,281.9,297.425Z" fill="#722b0c"/><path d="M300.929,307.025a11.464,11.464,0,0,1-1.042,3.511c-.667.933-1.927,2.132-2.029,3.131a4.549,4.549,0,0,0,0,1.4,9.7,9.7,0,0,1,2.029-2.2c1-.666,1.444-1.265,1.342-2.265S300.929,307.025,300.929,307.025Z" fill="#722b0c"/><path d="M317.535,287.126c-.9-.954-1.917.841-.844,3.9.869,2.481.9,3.671,1.746,4.647a1.107,1.107,0,0,0,1.713.076C321.566,294,319.7,289.42,317.535,287.126Z" fill="#722b0c"/><path d="M320.265,305.6c.75-.263,2.092-.737,2.241-.759,0-.362.017-.752.05-1.179.294-3.806-2.078-8.351-3.394-8.891,0,0-1.517,4.776-.773,7.44A7.643,7.643,0,0,0,320.265,305.6Z" fill="#722b0c"/><path d="M332.352,299.1c.828-.29,4.02-1.193,4.02-2.29,0-.4-3.915-8.463-5.365-9.059,0,0-1.673,5.267-.853,8.2A6.1,6.1,0,0,0,332.352,299.1Z" fill="#722b0c"/><path d="M309.225,292.413s.9,1.51,3.744.978,3.537-1.4,4.144-2.66c.57-1.183.542-2.995-1.2-1.856S309.225,292.413,309.225,292.413Z" fill="#722b0c"/><path d="M320.978,304.021s-.48,2.133.362,3.088,1.79,1.235,2.27,1.908a3.464,3.464,0,0,1,.562,1.011,1.639,1.639,0,0,0,0-1.909c-.7-1.01-1.342-1.034-1.821-1.622A11.96,11.96,0,0,1,320.978,304.021Z" fill="#722b0c"/><path d="M334.677,297.093s.094,2.365,1.241,3.128,2.217.793,2.907,1.363a3.758,3.758,0,0,1,.87.9,1.776,1.776,0,0,0-.533-2c-1.013-.862-1.693-.707-2.358-1.188A12.988,12.988,0,0,1,334.677,297.093Z" fill="#722b0c"/><path d="M319.558,289.934a27.153,27.153,0,0,0,1.941-5.2c.982-4.737,2.032-8.323,2.859-7.872s-.044,6.367-.385,7.872S323.006,289.815,319.558,289.934Z" fill="#722b0c"/><path d="M324.358,276.858s2.885.383,4.732,4.485,2.656,6.576,3.308,8a2.1,2.1,0,0,1-2.632,2.728c-1.952-.453-2.289-2.919-2.851-5.11S324.271,278.036,324.358,276.858Z" fill="#722b0c"/><path d="M289,291.976s-3.447-2.9-4.619-3.966-1.223-.314-4.441.5c-1.615.41-6.772,1.42-6.772,1.42s.452,1.47,3.21,1.075a39.848,39.848,0,0,0,6.808-1.965,62.389,62.389,0,0,0,5.376,3.734C289.315,292.7,289,291.976,289,291.976Z" fill="#e77a03"/><path d="M292.983,292.579s-.562.477-.169.926c.323.368.762,0,.762,0l3.579-2.252a25.217,25.217,0,0,1,2.525,3.041,7.828,7.828,0,0,0,2.816,2.663c.4.09.965-.547-1.374-2.975-2.217-2.3-3.031-4.042-3.888-3.806A26,26,0,0,0,292.983,292.579Z" fill="#e77a03"/></g><g transform="translate(998.831 73.356)"><path d="M301.982,278.926a38.478,38.478,0,0,1,2-7.354c1.148-2.429,3.6-3.3,3.824,1.209S301.982,278.926,301.982,278.926Z" fill="#722b0c"/><path d="M287.362,288.333a5.341,5.341,0,0,1-2.4,1.051c-1.347.182-2.76.67-3.259,1.625.883-.078,1.823.016,2.946-.078s1.457-.61,2.184-1.076A1.578,1.578,0,0,0,287.362,288.333Z" fill="#722b0c"/><path d="M290.373,283.084c-1.619.995-4.931,4.835-4.931,4.835a4.646,4.646,0,0,0,1.918,1.966c.585,1.01,1.264-.933,1.264-.933s3.126-2.82,3.771-4.058A1.4,1.4,0,0,0,290.373,283.084Z" fill="#722b0c"/><path d="M297.942,279.227s-1.258-4.013-3.053-3.442-2.89,4.862-3.337,7,1.217,1.276,2.218,1.4S297.942,279.227,297.942,279.227Z" fill="#722b0c"/><path d="M288.563,293.391a44.27,44.27,0,0,0-5.976,2.911,3.028,3.028,0,0,0-1.454,2.545,33.3,33.3,0,0,0,3.517-1.148c1.6-.648,3.93-2.07,4.26-2.669S288.563,293.391,288.563,293.391Z" fill="#722b0c"/><path d="M322.815,272.486c-.183-.025-.353-.063-.54-.085a26.213,26.213,0,0,0-5.116-.1,9.988,9.988,0,0,1,5.322,5.73c1.384,3.985-.131,9.083-.97,11.371a16.406,16.406,0,0,0,2.516.388,24.045,24.045,0,0,0,3.263-7.95C328.464,276.538,325.05,273.723,322.815,272.486Z" fill="#863f1b"/><path d="M318.918,280.509a8.01,8.01,0,0,0-6.267-7.437,21.811,21.811,0,0,0-6.344,2.679l-3.9,17.6a102.328,102.328,0,0,0,15.246-2.778A23.413,23.413,0,0,0,318.918,280.509Z" fill="#863f1b"/><path d="M334.247,278.48a14.716,14.716,0,0,0-5.551-4.323,9.757,9.757,0,0,1,2.727,6.373c.12,3.4-1.772,6.927-3.284,9.186a21.776,21.776,0,0,0,3.943-.809,22.947,22.947,0,0,0,1.962-4.309A10.548,10.548,0,0,0,334.247,278.48Z" fill="#863f1b"/><path d="M322.481,278.036a9.988,9.988,0,0,0-5.322-5.73,25.877,25.877,0,0,0-4.508.766,8.01,8.01,0,0,1,6.267,7.437,23.413,23.413,0,0,1-1.261,10.062,20.829,20.829,0,0,0,3.373-1.278c.156.043.321.076.481.114C322.35,287.119,323.865,282.021,322.481,278.036Z" fill="#e77a03"/><path d="M328.7,274.157a20.733,20.733,0,0,0-5.881-1.671c2.235,1.237,5.649,4.052,4.475,9.359a24.045,24.045,0,0,1-3.263,7.95,22,22,0,0,0,4.112-.079c1.512-2.259,3.4-5.787,3.284-9.186A9.757,9.757,0,0,0,328.7,274.157Z" fill="#e77a03"/><path d="M334.247,278.48a10.548,10.548,0,0,1-.2,6.118,22.947,22.947,0,0,1-1.962,4.309,13.533,13.533,0,0,0,4.528-2.257A10.984,10.984,0,0,0,334.247,278.48Z" fill="#e77a03"/><path d="M294.889,281.177s1.277-9.553,8.982-15.163,14.981-9.319,21.572-8.156c5.428.958-1.363,10.606-4.854,13.984s-10.775,7.683-10.775,7.683Z" fill="#e77a03" opacity="0.5"/><path d="M309.814,288.875s10.917-1.322,19.987-6.29c7.073-3.876,11.341-6.513,14.3-10.475,1.987-2.662.65-5.766-7.942-5.171s-12.5,0-23.348,4.9a83.883,83.883,0,0,0-10.4,5.574Z" fill="#e77a03" opacity="0.5"/><path d="M328.5,269.411a27.654,27.654,0,0,1-8.147,9.212c-5.177,3.924-7.867,4.915-7.867,4.915l-.28-1.141a81.7,81.7,0,0,0,7.437-4.518C323.749,275.089,328.5,269.411,328.5,269.411Z" fill="#722b0c"/><path d="M311.7,286.9a147.824,147.824,0,0,0,14.139-5.423c4.7-2.317,11.731-5.106,14.811-7.387s3.3-4.465,3.3-4.465a22.34,22.34,0,0,1-5.017,4.465,97.459,97.459,0,0,1-15.7,7.532,105.733,105.733,0,0,1-10.525,3.076Z" fill="#722b0c"/><path d="M300.991,277.87a20.379,20.379,0,0,1,6.379-8.459c4.565-3.411,11.548-5.492,11.548-5.492s-9.4,4.15-11.69,6.149a20.125,20.125,0,0,0-5.163,7.45Z" fill="#722b0c"/><path d="M296.694,279.924a22.407,22.407,0,0,1,4.23-9.156,46.73,46.73,0,0,1,17.994-11.549s-6.11,2.4-14.637,9a26.7,26.7,0,0,0-5.678,7.563,13.874,13.874,0,0,0-.661,3.448Z" fill="#722b0c"/><path d="M316.115,280.659a3.208,3.208,0,0,0-2.459-.735,22.865,22.865,0,0,1,.957-2.406c-1.107-.065-1.486-.065-2.685-.082a2.939,2.939,0,0,0,.665-2.39c-1.412,1.429-3.534.842-4.941.733a4.866,4.866,0,0,0-.287-2.155A16.439,16.439,0,0,1,305.7,275.8a9.282,9.282,0,0,1-.34-1.705,6.067,6.067,0,0,1-3.377,2.328,5.583,5.583,0,0,0-1.463-2.328,4.435,4.435,0,0,1-2.066,3.6c-6.482,3.8-7.768,11.055-7.768,11.055l4.972,6.754s9.363.961,14.851-3.871a9.6,9.6,0,0,0,2.927-4.295c.618-2.044,3.075-3.1,3.075-3.1a2.974,2.974,0,0,0-2.291-.507A4.237,4.237,0,0,1,316.115,280.659Z" fill="#e77a03"/><path d="M340.2,268.216a39.567,39.567,0,0,1-2.685,3.693c-1.41,1.678-4.5,5.605-4.5,5.605s1.264.071,1.276-.368,2.753-3.693,3.894-5.3A23.3,23.3,0,0,0,340.2,268.216Z" fill="#722b0c"/><path d="M322.275,276.475c.2-.135,5.443-1.159,8.259-2.82a37.7,37.7,0,0,0,6.076-4.835,69.376,69.376,0,0,1-7.654,4.767,16.62,16.62,0,0,1-5.338,1.545Z" fill="#722b0c"/><path d="M310.508,263.449a52.378,52.378,0,0,0,5.993-1.142c1.611-.537,5.774-2.618,5.774-2.618s-3.138,2.618-5.563,3.289a62.565,62.565,0,0,1-7.487,1.176Z" fill="#722b0c"/><path d="M309.955,268.216s4.53.356,6.561-.3a28.431,28.431,0,0,0,5.759-3.125,47.686,47.686,0,0,1-6.169,2.551,20.468,20.468,0,0,1-5.244.463Z" fill="#722b0c"/><path d="M305.564,293.47c-1.044-.641-4.063,1.29-4.685,5.21-.384,2.421,1.174,2.41,2.519-.139S307.087,294.4,305.564,293.47Z" fill="#722b0c"/><path d="M294.309,286.123a7.343,7.343,0,0,1,2.385-4.566c2.2-1.946,3.175-2.547,3.474-3.294a5.579,5.579,0,0,0,.351-1.5,6.652,6.652,0,0,1,.472,2.1,1.866,1.866,0,0,1-.472,1.061,17.2,17.2,0,0,1,2.545-1.5,16.579,16.579,0,0,1,2.39-.556l-1.544,1.592a13.827,13.827,0,0,1,2.021-.449,9.626,9.626,0,0,1,3.294.3l-3.622,2.171s1.45-.058,2.2-.038a12.124,12.124,0,0,0,2.728-.268,13.462,13.462,0,0,1-2.17,1.915,8.334,8.334,0,0,1-2.1.628,10.188,10.188,0,0,0,1.834.507,5.344,5.344,0,0,0,2.582-.507,10.611,10.611,0,0,1-3.319,3.863l2.005-.255a6.363,6.363,0,0,1-4.8,4.141,28.534,28.534,0,0,1-6.045.492Z" fill="#ffa648" opacity="0.8"/><path d="M294.772,284.32c3.167.925,4.861.532,5.747,4.021s-.132,9.2-3.825,11.451-6.729,1.941-8.2,0C285.3,295.572,289.476,282.773,294.772,284.32Z" fill="#863f1b"/><path d="M298.065,288.341c-1.712.194-1.265,3.025-1.752,5.267a28.145,28.145,0,0,1-1.684,4.841,5.963,5.963,0,0,0,4.3-3.879C300.319,291.1,299.63,288.164,298.065,288.341Z" fill="#722b0c"/><path d="M290.105,286.679s-2.266-.563-2.89,3.206a16.628,16.628,0,0,0,.171,5.972S288.958,287.995,290.105,286.679Z" fill="#722b0c"/><path d="M288.211,299.361s-.018,2.488.655,3.42a2.093,2.093,0,0,0,.952.792c.067-.366.076-.766.152-1.077a1.816,1.816,0,0,1,.625-.951,1.6,1.6,0,0,1,.037,1.214c-.059.2-.263.813-.3.971.914,0,2.37-.326,3.441-2.631A6.142,6.142,0,0,1,288.211,299.361Z" fill="#722b0c"/><path d="M301.958,299.385c-1.9-.254-2.159,1.55-2.4,4.323a19.55,19.55,0,0,0,.22,4.248c.185,1.257.4,2.168.4,2.168a5.142,5.142,0,0,0,2.22-4A29.207,29.207,0,0,0,301.958,299.385Z" fill="#722b0c"/><path d="M281.9,297.425s-1.187,1.338-1.854,2.271-1.926,2.131-2.029,3.13a4.593,4.593,0,0,0,0,1.4,9.723,9.723,0,0,1,2.029-2.2c1-.666,1.445-1.265,1.343-2.265A5.618,5.618,0,0,1,281.9,297.425Z" fill="#722b0c"/><path d="M300.929,307.025a11.464,11.464,0,0,1-1.042,3.511c-.667.933-1.927,2.132-2.029,3.131a4.549,4.549,0,0,0,0,1.4,9.7,9.7,0,0,1,2.029-2.2c1-.666,1.444-1.265,1.342-2.265S300.929,307.025,300.929,307.025Z" fill="#722b0c"/><path d="M317.535,287.126c-.9-.954-1.917.841-.844,3.9.869,2.481.9,3.671,1.746,4.647a1.107,1.107,0,0,0,1.713.076C321.566,294,319.7,289.42,317.535,287.126Z" fill="#722b0c"/><path d="M320.265,305.6c.75-.263,2.092-.737,2.241-.759,0-.362.017-.752.05-1.179.294-3.806-2.078-8.351-3.394-8.891,0,0-1.517,4.776-.773,7.44A7.643,7.643,0,0,0,320.265,305.6Z" fill="#722b0c"/><path d="M332.352,299.1c.828-.29,4.02-1.193,4.02-2.29,0-.4-3.915-8.463-5.365-9.059,0,0-1.673,5.267-.853,8.2A6.1,6.1,0,0,0,332.352,299.1Z" fill="#722b0c"/><path d="M309.225,292.413s.9,1.51,3.744.978,3.537-1.4,4.144-2.66c.57-1.183.542-2.995-1.2-1.856S309.225,292.413,309.225,292.413Z" fill="#722b0c"/><path d="M320.978,304.021s-.48,2.133.362,3.088,1.79,1.235,2.27,1.908a3.464,3.464,0,0,1,.562,1.011,1.639,1.639,0,0,0,0-1.909c-.7-1.01-1.342-1.034-1.821-1.622A11.96,11.96,0,0,1,320.978,304.021Z" fill="#722b0c"/><path d="M334.677,297.093s.094,2.365,1.241,3.128,2.217.793,2.907,1.363a3.758,3.758,0,0,1,.87.9,1.776,1.776,0,0,0-.533-2c-1.013-.862-1.693-.707-2.358-1.188A12.988,12.988,0,0,1,334.677,297.093Z" fill="#722b0c"/><path d="M319.558,289.934a27.153,27.153,0,0,0,1.941-5.2c.982-4.737,2.032-8.323,2.859-7.872s-.044,6.367-.385,7.872S323.006,289.815,319.558,289.934Z" fill="#722b0c"/><path d="M324.358,276.858s2.885.383,4.732,4.485,2.656,6.576,3.308,8a2.1,2.1,0,0,1-2.632,2.728c-1.952-.453-2.289-2.919-2.851-5.11S324.271,278.036,324.358,276.858Z" fill="#722b0c"/><path d="M289,291.976s-3.447-2.9-4.619-3.966-1.223-.314-4.441.5c-1.615.41-6.772,1.42-6.772,1.42s.452,1.47,3.21,1.075a39.848,39.848,0,0,0,6.808-1.965,62.389,62.389,0,0,0,5.376,3.734C289.315,292.7,289,291.976,289,291.976Z" fill="#e77a03"/><path d="M292.983,292.579s-.562.477-.169.926c.323.368.762,0,.762,0l3.579-2.252a25.217,25.217,0,0,1,2.525,3.041,7.828,7.828,0,0,0,2.816,2.663c.4.09.965-.547-1.374-2.975-2.217-2.3-3.031-4.042-3.888-3.806A26,26,0,0,0,292.983,292.579Z" fill="#e77a03"/></g></g></svg>