<svg xmlns="http://www.w3.org/2000/svg" width="57" height="56" viewBox="0 0 57 56"><g transform="translate(-256)"><ellipse cx="28.5" cy="28" rx="28.5" ry="28" transform="translate(256)" fill="#d0d0d0"/><g transform="translate(206.516 -233.219)"><path d="M97.12,249.84a15.411,15.411,0,0,1-4.435,1.215,7.748,7.748,0,0,0,3.4-4.272,15.45,15.45,0,0,1-4.9,1.874A7.728,7.728,0,0,0,78.019,255.7,21.916,21.916,0,0,1,62.1,247.632a7.729,7.729,0,0,0,2.388,10.31,7.689,7.689,0,0,1-3.5-.967c0,.032,0,.066,0,.1a7.726,7.726,0,0,0,6.195,7.57,7.733,7.733,0,0,1-3.487.134,7.728,7.728,0,0,0,7.213,5.361,15.607,15.607,0,0,1-11.432,3.2,21.845,21.845,0,0,0,11.836,3.47c14.2,0,21.97-11.765,21.97-21.971q0-.5-.023-1a15.679,15.679,0,0,0,3.853-4Zm0,0" transform="translate(0)" fill="#fff"/></g></g></svg>